<svg width="37" height="37" viewBox="0 0 37 37" fill="none" xmlns="http://www.w3.org/2000/svg">
<path d="M16.7819 12.7224C17.6343 12.7261 18.4631 13.0026 19.1469 13.5115C19.8308 14.0204 20.3336 14.735 20.5819 15.5504L22.7589 16.3414C22.6869 15.1888 22.2839 14.0814 21.5981 13.1522C20.9124 12.223 19.973 11.5115 18.8928 11.103C17.8126 10.6945 16.6375 10.6064 15.5084 10.8493C14.3794 11.0922 13.3445 11.6558 12.5279 12.4724C11.7113 13.2891 11.1477 14.324 10.9047 15.453C10.6618 16.582 10.7499 17.7572 11.1584 18.8374C11.5669 19.9176 12.2784 20.857 13.2077 21.5427C14.1369 22.2285 15.2442 22.6315 16.3969 22.7034L15.6099 20.5224C14.697 20.2419 13.9151 19.643 13.4063 18.8347C12.8976 18.0264 12.6959 17.0623 12.8378 16.1179C12.9797 15.1734 13.4559 14.3113 14.1796 13.6881C14.9034 13.065 15.8268 12.7224 16.7819 12.7224Z" fill="#FEF335"/>
<path d="M16.782 24.7225C15.1998 24.7225 13.6531 24.2533 12.3375 23.3742C11.0219 22.4952 9.99651 21.2458 9.39101 19.7839C8.78551 18.3221 8.62708 16.7136 8.93576 15.1618C9.24444 13.6099 10.0064 12.1844 11.1252 11.0656C12.244 9.9468 13.6695 9.18487 15.2213 8.87619C16.7732 8.56751 18.3817 8.72593 19.8435 9.33144C21.3053 9.93694 22.5548 10.9623 23.4338 12.2779C24.3129 13.5935 24.7821 15.1402 24.7821 16.7225C24.7821 16.8395 24.7691 16.9535 24.7641 17.0695L26.7241 17.7825C26.9467 15.7216 26.5245 13.6424 25.5156 11.8316C24.5067 10.0208 22.9609 8.56758 21.0912 7.67245C19.2216 6.77732 17.1202 6.48432 15.077 6.83387C13.0338 7.18343 11.1494 8.1583 9.68363 9.62406C8.21787 11.0898 7.243 12.9742 6.89344 15.0174C6.54389 17.0606 6.83689 19.162 7.73202 21.0316C8.62715 22.9013 10.0803 24.4472 11.8911 25.4561C13.7019 26.465 15.7812 26.8872 17.842 26.6645L17.129 24.7045C17.013 24.7095 16.899 24.7225 16.782 24.7225Z" fill="#FEF335"/>
<path d="M30.7817 21.5014L20.3197 17.7014C19.9621 17.5715 19.5749 17.5463 19.2035 17.6287C18.8321 17.7111 18.4919 17.8977 18.2228 18.1667C17.9537 18.4357 17.7669 18.7758 17.6844 19.1472C17.6018 19.5185 17.6269 19.9058 17.7567 20.2634L21.5607 30.7224L25.4607 26.8224L28.2537 29.6154L29.6677 28.2014L26.8817 25.4054L30.7817 21.5014ZM22.3677 27.0874L19.6367 19.5774L27.1467 22.3084L22.3677 27.0874Z" fill="#FEF335"/>
</svg>
