<svg width="1005" height="204" viewBox="0 0 1005 204" fill="none" xmlns="http://www.w3.org/2000/svg">
<path d="M0.515625 134.211C0.971354 134.016 1.58984 133.788 2.37109 133.527C3.21745 133.267 4.09635 133.039 5.00781 132.844C5.98438 132.583 6.96094 132.355 7.9375 132.16C8.91406 131.9 9.79297 131.672 10.5742 131.477L54.9102 1.59375C56.5378 1.33333 58.263 1.17057 60.0859 1.10547C61.974 0.97526 63.7969 0.910156 65.5547 0.910156C67.3776 0.910156 69.1354 0.97526 70.8281 1.10547C72.5208 1.23568 74.0508 1.39844 75.418 1.59375L121.121 131.965L131.375 134.211L130.398 143H84.6953L83.8164 134.211C85.1185 133.885 86.5833 133.56 88.2109 133.234C89.8385 132.909 91.4987 132.616 93.1914 132.355C94.9492 132.095 96.6419 131.867 98.2695 131.672C99.8971 131.477 101.362 131.281 102.664 131.086L90.1641 94.5625H37.332L25.125 131.086H25.6133L45.4375 134.211L44.5586 143H1.58984L0.515625 134.211ZM86.5508 83.2344L65.0664 21.2227L63.3086 15.0703L60.8672 25.6172L41.3359 83.2344H86.5508ZM190.066 97.5898C190.066 89.9076 190.945 82.974 192.703 76.7891C194.526 70.6042 197.195 65.3307 200.711 60.9688C204.292 56.6068 208.751 53.2539 214.09 50.9102C219.428 48.5664 225.646 47.3945 232.742 47.3945C234.891 47.3945 237.234 47.4922 239.773 47.6875C242.378 47.8177 245.014 48.0781 247.684 48.4688C250.418 48.8594 253.152 49.4128 255.887 50.1289C258.621 50.7799 261.258 51.6589 263.797 52.7656C263.992 54.6536 263.96 56.8346 263.699 59.3086C263.504 61.7826 263.178 64.2891 262.723 66.8281C262.332 69.3672 261.909 71.776 261.453 74.0547C260.997 76.2682 260.607 78.026 260.281 79.3281C258.393 79.3281 256.798 79.3281 255.496 79.3281C254.194 79.263 252.632 79.1003 250.809 78.8398L249.051 61.75C247.228 60.9036 245.307 60.2201 243.289 59.6992C241.271 59.1784 239.35 58.8203 237.527 58.625C235.704 58.3646 234.077 58.2018 232.645 58.1367C231.212 58.0716 230.171 58.0391 229.52 58.0391C226.004 58.0391 222.846 58.6901 220.047 59.9922C217.312 61.2292 215.001 63.3451 213.113 66.3398C211.225 69.2695 209.793 73.1758 208.816 78.0586C207.84 82.8763 207.352 88.8333 207.352 95.9297C207.352 102.896 207.84 108.723 208.816 113.41C209.858 118.098 211.518 121.874 213.797 124.738C216.076 127.538 219.103 129.556 222.879 130.793C226.655 132.03 231.342 132.648 236.941 132.648C239.871 132.648 242.768 132.323 245.633 131.672C248.562 130.956 251.199 130.207 253.543 129.426C255.887 128.579 257.807 127.798 259.305 127.082C260.802 126.366 261.648 125.975 261.844 125.91L265.945 134.699C265.424 135.09 264.22 135.904 262.332 137.141C260.444 138.312 258.003 139.549 255.008 140.852C252.078 142.154 248.628 143.293 244.656 144.27C240.75 145.311 236.486 145.832 231.863 145.832C228.283 145.832 224.734 145.604 221.219 145.148C217.768 144.693 214.48 143.846 211.355 142.609C208.296 141.372 205.464 139.647 202.859 137.434C200.255 135.22 198.009 132.323 196.121 128.742C194.233 125.161 192.736 120.832 191.629 115.754C190.587 110.611 190.066 104.556 190.066 97.5898ZM281.277 96.6133C281.277 89.7773 282.221 83.3971 284.109 77.4727C286.062 71.4831 289.025 66.2747 292.996 61.8477C297.033 57.3555 302.078 53.8398 308.133 51.3008C314.253 48.6966 321.512 47.3945 329.91 47.3945C338.309 47.3945 345.177 48.6966 350.516 51.3008C355.854 53.8398 360.053 57.3555 363.113 61.8477C366.238 66.2747 368.387 71.4831 369.559 77.4727C370.73 83.3971 371.316 89.7773 371.316 96.6133C371.316 103.449 370.34 109.862 368.387 115.852C366.434 121.776 363.439 126.984 359.402 131.477C355.431 135.904 350.385 139.419 344.266 142.023C338.146 144.562 330.919 145.832 322.586 145.832C314.188 145.832 307.319 144.562 301.98 142.023C296.642 139.419 292.443 135.904 289.383 131.477C286.323 126.984 284.207 121.776 283.035 115.852C281.863 109.862 281.277 103.449 281.277 96.6133ZM299.246 96.6133C299.246 104.556 299.865 111.034 301.102 116.047C302.339 121.06 304.096 124.999 306.375 127.863C308.719 130.728 311.551 132.714 314.871 133.82C318.191 134.862 321.967 135.383 326.199 135.383C329.975 135.383 333.491 134.862 336.746 133.82C340.066 132.714 342.931 130.728 345.34 127.863C347.814 124.999 349.734 121.06 351.102 116.047C352.534 111.034 353.25 104.556 353.25 96.6133C353.25 88.7357 352.632 82.2904 351.395 77.2773C350.158 72.1992 348.367 68.2279 346.023 65.3633C343.745 62.4987 340.913 60.5456 337.527 59.5039C334.207 58.3971 330.431 57.8438 326.199 57.8438C322.488 57.8438 318.973 58.3971 315.652 59.5039C312.397 60.5456 309.533 62.4987 307.059 65.3633C304.65 68.2279 302.729 72.1992 301.297 77.2773C299.93 82.2904 299.246 88.7357 299.246 96.6133ZM391.824 135.383C394.233 134.536 396.74 133.918 399.344 133.527C402.013 133.072 404.585 132.616 407.059 132.16V60.8711H390.262L389.09 52.4727C389.871 52.1471 391.141 51.6914 392.898 51.1055C394.721 50.5195 396.74 49.9661 398.953 49.4453C401.232 48.8594 403.51 48.3711 405.789 47.9805C408.133 47.5898 410.249 47.3945 412.137 47.3945C414.871 47.3945 416.954 47.7526 418.387 48.4688C419.884 49.1849 420.958 50.0638 421.609 51.1055C422.326 52.1471 422.716 53.2865 422.781 54.5234C422.911 55.7604 422.977 56.8672 422.977 57.8438V59.5039C425.776 57.4857 428.445 55.7279 430.984 54.2305C433.589 52.668 436.16 51.3984 438.699 50.4219C441.303 49.3802 443.94 48.6315 446.609 48.1758C449.279 47.6549 452.078 47.3945 455.008 47.3945C458.523 47.3945 461.648 47.6224 464.383 48.0781C467.182 48.4688 469.591 49.1849 471.609 50.2266C473.693 51.2031 475.418 52.5378 476.785 54.2305C478.152 55.8581 479.259 57.9414 480.105 60.4805L482.254 59.0156C485.053 57.1276 487.788 55.4674 490.457 54.0352C493.191 52.5378 495.893 51.3008 498.562 50.3242C501.232 49.3477 503.934 48.6315 506.668 48.1758C509.467 47.6549 512.365 47.3945 515.359 47.3945C520.503 47.3945 524.799 47.8503 528.25 48.7617C531.766 49.6732 534.565 51.3008 536.648 53.6445C538.797 55.9883 540.327 59.2109 541.238 63.3125C542.15 67.349 542.605 72.5247 542.605 78.8398V132.453L557.84 135.09C557.97 135.48 558.035 135.936 558.035 136.457C558.035 136.978 558.035 137.466 558.035 137.922C558.035 138.833 557.905 139.81 557.645 140.852C557.384 141.828 557.124 142.544 556.863 143H513.699L512.918 135.383C515.262 134.536 517.475 133.951 519.559 133.625C521.642 133.299 523.823 132.909 526.102 132.453V79.8164C526.102 76.3659 525.841 73.4362 525.32 71.0273C524.865 68.5534 524.051 66.5677 522.879 65.0703C521.707 63.5078 520.177 62.3685 518.289 61.6523C516.401 60.9362 514.09 60.5781 511.355 60.5781C508.426 60.5781 505.724 60.7083 503.25 60.9688C500.841 61.2292 498.53 61.6198 496.316 62.1406C494.103 62.6615 491.922 63.3451 489.773 64.1914C487.69 64.9727 485.509 65.9167 483.23 67.0234L481.668 67.8047C482.059 71.0599 482.254 74.7383 482.254 78.8398V132.453L497.488 135.09C497.618 135.48 497.684 135.936 497.684 136.457C497.749 136.978 497.781 137.466 497.781 137.922C497.781 138.833 497.651 139.81 497.391 140.852C497.13 141.828 496.87 142.544 496.609 143H453.445L452.762 135.383C455.04 134.536 457.221 133.951 459.305 133.625C461.453 133.299 463.667 132.909 465.945 132.453V79.8164C465.945 76.431 465.685 73.5339 465.164 71.125C464.708 68.651 463.895 66.6328 462.723 65.0703C461.551 63.5078 460.021 62.3685 458.133 61.6523C456.245 60.9362 453.934 60.5781 451.199 60.5781C448.27 60.5781 445.568 60.7083 443.094 60.9688C440.685 61.2292 438.374 61.6198 436.16 62.1406C433.947 62.6615 431.766 63.3125 429.617 64.0938C427.534 64.875 425.32 65.7865 422.977 66.8281V132.16L438.895 135.09C439.025 135.48 439.09 135.936 439.09 136.457C439.09 136.978 439.09 137.466 439.09 137.922C439.09 138.833 438.96 139.81 438.699 140.852C438.504 141.828 438.276 142.544 438.016 143H392.703L391.824 135.383ZM601.883 189.191L627.273 191.73C627.469 194.855 627.241 197.85 626.59 200.715H570.73L569.754 192.609C572.228 191.828 574.865 191.177 577.664 190.656C580.464 190.135 583.1 189.647 585.574 189.191V60.8711H567.996L566.824 52.4727C567.605 52.1471 568.908 51.6914 570.73 51.1055C572.553 50.5195 574.572 49.9661 576.785 49.4453C578.999 48.8594 581.277 48.3711 583.621 47.9805C585.965 47.5898 588.048 47.3945 589.871 47.3945C592.605 47.3945 594.721 47.7852 596.219 48.5664C597.781 49.2826 598.921 50.194 599.637 51.3008C600.353 52.4076 600.776 53.5794 600.906 54.8164C601.102 55.9883 601.199 57.0625 601.199 58.0391V59.3086C602.762 58.332 604.65 57.1602 606.863 55.793C609.077 54.4258 611.616 53.1237 614.48 51.8867C617.345 50.6497 620.503 49.6081 623.953 48.7617C627.404 47.8503 631.147 47.3945 635.184 47.3945C642.215 47.3945 647.977 48.5339 652.469 50.8125C656.961 53.0911 660.477 56.2161 663.016 60.1875C665.62 64.1589 667.378 68.8789 668.289 74.3477C669.201 79.7513 669.624 85.6107 669.559 91.9258C669.428 99.543 668.842 106.184 667.801 111.848C666.759 117.447 665.327 122.264 663.504 126.301C661.746 130.272 659.663 133.527 657.254 136.066C654.845 138.605 652.241 140.591 649.441 142.023C646.707 143.456 643.81 144.432 640.75 144.953C637.69 145.539 634.598 145.832 631.473 145.832C625.092 145.832 619.559 144.921 614.871 143.098C610.249 141.34 605.919 138.833 601.883 135.578V189.191ZM601.883 124.738C604.943 126.952 608.719 128.905 613.211 130.598C617.768 132.225 622.846 133.039 628.445 133.039C633.523 133.039 637.592 131.997 640.652 129.914C643.712 127.766 646.056 124.836 647.684 121.125C649.376 117.414 650.483 113.052 651.004 108.039C651.59 103.026 651.915 97.6549 651.98 91.9258C652.046 88.0846 651.883 84.2435 651.492 80.4023C651.102 76.5612 650.223 73.1107 648.855 70.0508C647.488 66.9909 645.47 64.5169 642.801 62.6289C640.197 60.6758 636.648 59.6992 632.156 59.6992C629.161 59.6992 626.199 59.9596 623.27 60.4805C620.405 61.0013 617.671 61.6849 615.066 62.5312C612.527 63.3125 610.118 64.2565 607.84 65.3633C605.626 66.4701 603.641 67.6094 601.883 68.7812V124.738ZM687.625 121.223C687.885 115.493 689.285 110.806 691.824 107.16C694.363 103.449 697.749 100.52 701.98 98.3711C706.212 96.1576 711.193 94.5625 716.922 93.5859C722.716 92.6094 729.031 91.9258 735.867 91.5352L742.508 91.0469V80.8906C742.443 76.5286 742.085 73.0456 741.434 70.4414C740.783 67.7721 739.676 65.7214 738.113 64.2891C736.616 62.8568 734.565 61.9453 731.961 61.5547C729.422 61.099 726.264 60.8711 722.488 60.8711C718.061 60.8711 713.797 61.3919 709.695 62.4336C705.594 63.4102 701.492 64.6471 697.391 66.1445L693.387 56.6719C694.233 56.2161 695.633 55.5 697.586 54.5234C699.604 53.4818 702.046 52.4401 704.91 51.3984C707.775 50.3568 711.03 49.4453 714.676 48.6641C718.387 47.8177 722.391 47.3945 726.688 47.3945C732.938 47.3945 738.113 47.9805 742.215 49.1523C746.382 50.3242 749.669 52.2448 752.078 54.9141C754.487 57.5833 756.18 61.099 757.156 65.4609C758.133 69.8229 758.621 75.194 758.621 81.5742V132.648H776.883L777.566 140.754C776.785 141.079 775.516 141.535 773.758 142.121C772 142.707 770.047 143.26 767.898 143.781C765.75 144.367 763.536 144.855 761.258 145.246C758.979 145.637 756.928 145.832 755.105 145.832C752.371 145.832 750.223 145.441 748.66 144.66C747.163 143.944 746.023 143.065 745.242 142.023C744.526 140.917 744.07 139.745 743.875 138.508C743.745 137.206 743.68 136.066 743.68 135.09V130.5H743.484C741.922 132.062 740.001 133.755 737.723 135.578C735.509 137.401 733.035 139.061 730.301 140.559C727.566 142.056 724.604 143.293 721.414 144.27C718.224 145.311 714.904 145.832 711.453 145.832C708.784 145.832 706.017 145.507 703.152 144.855C700.353 144.27 697.781 143.13 695.438 141.438C693.159 139.745 691.271 137.434 689.773 134.504C688.341 131.574 687.625 127.798 687.625 123.176V121.223ZM704.422 121.027C704.422 123.371 704.747 125.292 705.398 126.789C706.115 128.286 707.059 129.491 708.23 130.402C709.402 131.314 710.704 131.965 712.137 132.355C713.634 132.681 715.164 132.844 716.727 132.844C718.354 132.844 720.145 132.681 722.098 132.355C724.051 131.965 726.134 131.379 728.348 130.598C730.561 129.816 732.84 128.775 735.184 127.473C737.592 126.171 740.034 124.576 742.508 122.688V99.6406L734.891 100.324C724.474 101.236 716.792 103.352 711.844 106.672C706.896 109.927 704.422 114.712 704.422 121.027ZM789.871 135.383C792.28 134.667 794.819 134.081 797.488 133.625C800.223 133.104 802.762 132.616 805.105 132.16V60.8711H788.309L787.137 52.4727C787.918 52.1471 789.188 51.6914 790.945 51.1055C792.768 50.5195 794.786 49.9661 797 49.4453C799.279 48.8594 801.557 48.3711 803.836 47.9805C806.18 47.5898 808.296 47.3945 810.184 47.3945C812.918 47.3945 815.034 47.7526 816.531 48.4688C818.029 49.1849 819.135 50.0638 819.852 51.1055C820.568 52.1471 820.991 53.2865 821.121 54.5234C821.316 55.7604 821.447 56.8672 821.512 57.8438V59.5039C827.046 55.4023 832.482 52.375 837.82 50.4219C843.159 48.4036 848.79 47.3945 854.715 47.3945C859.858 47.3945 864.155 47.8503 867.605 48.7617C871.121 49.6732 873.921 51.3008 876.004 53.6445C878.152 55.9883 879.682 59.2109 880.594 63.3125C881.505 67.349 881.961 72.5247 881.961 78.8398V132.453L897.293 135.09C897.423 135.48 897.488 135.936 897.488 136.457C897.488 136.978 897.488 137.466 897.488 137.922C897.488 138.833 897.326 139.81 897 140.852C896.74 141.828 896.479 142.544 896.219 143H853.055L852.371 135.383C854.715 134.667 856.928 134.113 859.012 133.723C861.095 133.332 863.276 132.909 865.555 132.453V79.8164C865.555 76.1055 865.294 73.013 864.773 70.5391C864.318 68.0651 863.504 66.112 862.332 64.6797C861.16 63.1823 859.63 62.1406 857.742 61.5547C855.854 60.9036 853.543 60.5781 850.809 60.5781C847.879 60.5781 845.112 60.7083 842.508 60.9688C839.969 61.2292 837.527 61.6198 835.184 62.1406C832.84 62.6615 830.561 63.3125 828.348 64.0938C826.134 64.875 823.855 65.7865 821.512 66.8281V132.16L836.941 135.09C837.072 135.48 837.137 135.936 837.137 136.457C837.137 136.978 837.137 137.466 837.137 137.922C837.137 138.833 837.007 139.81 836.746 140.852C836.551 141.828 836.323 142.544 836.062 143H790.75L789.871 135.383ZM912.137 60.5781L905.105 58.0391C904.975 57.7135 904.878 57.2904 904.812 56.7695C904.812 56.2487 904.812 55.7604 904.812 55.3047C904.812 54.3932 904.975 53.4492 905.301 52.4727C905.626 51.431 905.887 50.6823 906.082 50.2266H944.852L945.535 57.8438C943.387 58.5599 941.01 59.1458 938.406 59.6016C935.802 60.0573 933.361 60.4479 931.082 60.7734L954.324 122.004L957.254 134.016L980.789 60.9688L963.797 58.0391C963.667 57.7135 963.602 57.2904 963.602 56.7695C963.602 56.2487 963.602 55.7604 963.602 55.3047C963.602 54.3932 963.732 53.4492 963.992 52.4727C964.253 51.431 964.48 50.6823 964.676 50.2266H1003.74L1004.62 58.5273C1003.97 58.8529 1003.25 59.1458 1002.47 59.4062C1001.69 59.6016 1000.87 59.8294 1000.03 60.0898C999.181 60.2852 998.367 60.4805 997.586 60.6758C996.87 60.806 996.219 60.9362 995.633 61.0664L967.41 142.805L966.238 145.832C963.504 153.645 961.193 159.96 959.305 164.777C957.482 169.66 955.952 173.501 954.715 176.301C953.543 179.165 952.632 181.281 951.98 182.648C951.329 184.016 950.809 185.122 950.418 185.969C948.79 189.289 947.163 192.056 945.535 194.27C943.908 196.548 942.117 198.371 940.164 199.738C938.211 201.105 935.997 202.082 933.523 202.668C931.049 203.254 928.152 203.547 924.832 203.547C922.749 203.547 920.6 203.384 918.387 203.059C916.238 202.798 914.155 202.408 912.137 201.887C910.184 201.431 908.361 200.878 906.668 200.227C905.04 199.576 903.673 198.859 902.566 198.078L904.812 190.07C907.742 190.396 910.379 190.656 912.723 190.852C915.066 191.047 917.54 191.014 920.145 190.754C921.512 190.689 922.911 190.493 924.344 190.168C925.776 189.842 927.208 189.322 928.641 188.605C930.138 187.889 931.603 186.913 933.035 185.676C934.467 184.439 935.867 182.844 937.234 180.891C938.406 179.133 939.708 176.887 941.141 174.152C942.573 171.483 944.038 168.488 945.535 165.168C947.033 161.848 948.53 158.299 950.027 154.523C951.525 150.747 952.957 146.906 954.324 143H945.535L912.137 60.5781Z" fill="white"/>
</svg>
