<svg width="78" height="78" viewBox="0 0 78 78" fill="none" xmlns="http://www.w3.org/2000/svg">
<path d="M41.2511 16.6145V14.2499C41.2511 13.6532 41.014 13.0809 40.592 12.659C40.1701 12.237 39.5977 12 39.001 12C38.4042 12 37.8319 12.237 37.4099 12.659C36.9879 13.0809 36.7509 13.6532 36.7509 14.2499V16.6145C32.2209 17.0206 27.891 18.6691 24.2381 21.3785C20.5852 24.0879 17.7512 27.7529 16.0482 31.9698C14.3453 36.1867 13.8395 40.7919 14.5866 45.2778C15.3337 49.7638 17.3047 53.9565 20.2825 57.394C19.1065 57.9757 18.1238 58.885 17.4527 60.0122C16.7817 61.1395 16.4508 62.4368 16.5001 63.7477C16.5001 64.3444 16.7372 64.9167 17.1591 65.3386C17.5811 65.7606 18.1534 65.9976 18.7502 65.9976C19.3469 65.9976 19.9193 65.7606 20.3412 65.3386C20.7632 64.9167 21.0003 64.3444 21.0003 63.7477C20.9816 63.0542 21.2306 62.3802 21.6956 61.8653C22.1606 61.3505 22.806 61.0344 23.4979 60.9826C23.6526 60.9531 23.8036 60.9064 23.9479 60.8431C28.258 64.1858 33.5576 66 39.0122 66C44.4668 66 49.7665 64.1858 54.0766 60.8431C54.2083 60.9038 54.3454 60.952 54.4861 60.9871C55.1804 61.0344 55.8296 61.348 56.2983 61.8623C56.767 62.3767 57.019 63.0521 57.0017 63.7477C57.0017 64.3444 57.2387 64.9167 57.6607 65.3386C58.0827 65.7606 58.655 65.9976 59.2518 65.9976C59.8485 65.9976 60.4209 65.7606 60.8428 65.3386C61.2648 64.9167 61.5019 64.3444 61.5019 63.7477C61.5511 62.4368 61.2203 61.1395 60.5492 60.0122C59.8781 58.885 58.8954 57.9757 57.7195 57.394C60.6972 53.9565 62.6682 49.7638 63.4154 45.2778C64.1625 40.7919 63.6567 36.1867 61.9537 31.9698C60.2508 27.7529 57.4167 24.0879 53.7638 21.3785C50.111 18.6691 45.781 17.0206 41.2511 16.6145ZM18.7502 41.2487C18.7502 37.2438 19.9379 33.3288 22.1631 29.9989C24.3882 26.6689 27.551 24.0736 31.2513 22.541C34.9517 21.0083 39.0234 20.6073 42.9517 21.3887C46.88 22.17 50.4883 24.0985 53.3205 26.9304C56.1526 29.7623 58.0813 33.3703 58.8627 37.2983C59.644 41.2262 59.243 45.2977 57.7103 48.9977C56.1775 52.6978 53.5819 55.8602 50.2517 58.0852C46.9215 60.3102 43.0062 61.4978 39.001 61.4978C33.6321 61.4913 28.4851 59.3558 24.6887 55.5598C20.8924 51.7637 18.7567 46.6171 18.7502 41.2487Z" fill="#A8FE39"/>
<path d="M55.454 12.0082C54.8694 12.0082 54.3089 12.2379 53.8955 12.6468C53.4822 13.0557 53.25 13.6102 53.25 14.1885C53.25 14.7668 53.4822 15.3213 53.8955 15.7302C54.3089 16.1391 54.8694 16.3688 55.454 16.3688C56.2225 16.311 56.9949 16.4078 57.7246 16.6533C58.4544 16.8988 59.1263 17.288 59.6998 17.7973C60.2734 18.3067 60.7367 18.9257 61.062 19.617C61.3872 20.3083 61.5675 21.0575 61.592 21.8196C61.592 22.3979 61.8243 22.9525 62.2376 23.3614C62.6509 23.7703 63.2115 24 63.796 24C64.3806 24 64.9411 23.7703 65.3545 23.3614C65.7678 22.9525 66 22.3979 66 21.8196C65.9718 20.4864 65.6751 19.172 65.1273 17.9536C64.5794 16.7351 63.7915 15.6369 62.8095 14.7233C61.8275 13.8097 60.6712 13.099 59.4082 12.6328C58.1452 12.1666 56.8009 11.9542 55.454 12.0082Z" fill="#A8FE39"/>
<path d="M16.408 21.8196C16.4325 21.0575 16.6128 20.3083 16.938 19.617C17.2633 18.9257 17.7266 18.3067 18.3002 17.7973C18.8737 17.288 19.5456 16.8988 20.2754 16.6533C21.0051 16.4078 21.7775 16.311 22.546 16.3688C23.1306 16.3688 23.6911 16.1391 24.1045 15.7302C24.5178 15.3213 24.75 14.7668 24.75 14.1885C24.75 13.6102 24.5178 13.0557 24.1045 12.6468C23.6911 12.2379 23.1306 12.0082 22.546 12.0082C21.1991 11.9542 19.8548 12.1666 18.5918 12.6328C17.3289 13.099 16.1725 13.8097 15.1905 14.7233C14.2085 15.6369 13.4206 16.7351 12.8727 17.9536C12.3249 19.172 12.0282 20.4864 12 21.8196C12 22.3979 12.2322 22.9525 12.6455 23.3614C13.0589 23.7703 13.6194 24 14.204 24C14.7885 24 15.3491 23.7703 15.7624 23.3614C16.1757 22.9525 16.408 22.3979 16.408 21.8196Z" fill="#A8FE39"/>
<path d="M41.2611 38.4145V28.4276C41.2611 27.8501 41.0234 27.2962 40.6005 26.8878C40.1775 26.4794 39.6038 26.25 39.0055 26.25C38.4073 26.25 37.8336 26.4794 37.4106 26.8878C36.9876 27.2962 36.75 27.8501 36.75 28.4276V39.316C36.7501 39.8935 36.9878 40.4473 37.4109 40.8556L44.1775 47.3887C44.6029 47.7854 45.1727 48.0048 45.7641 47.9999C46.3555 47.9949 46.9212 47.7659 47.3394 47.3621C47.7576 46.9584 47.9948 46.4122 47.9999 45.8412C48.0051 45.2702 47.7777 44.7202 47.3668 44.3094L41.2611 38.4145Z" fill="#A8FE39"/>
</svg>
