<svg width="37" height="37" viewBox="0 0 37 37" fill="none" xmlns="http://www.w3.org/2000/svg">
<g filter="url(#filter0_i_983_11004)">
<path d="M13.7715 14.4998V12.4998H21.7715V14.4998H13.7715ZM10.7715 28.4997C10.5063 28.4997 10.2519 28.3944 10.0644 28.2069C9.87684 28.0193 9.77148 27.765 9.77148 27.4997V9.49975C9.77148 9.23454 9.87684 8.98018 10.0644 8.79265C10.2519 8.60511 10.5063 8.49976 10.7715 8.49976H25.7715V17.9998C26.5141 18.3123 27.1922 18.7598 27.7715 19.3197V6.49976H10.7715C9.97584 6.49976 9.21277 6.81583 8.65016 7.37844C8.08756 7.94104 7.77148 8.70411 7.77148 9.49975V27.4997C7.77148 28.2954 8.08756 29.0585 8.65016 29.6211C9.21277 30.1837 9.97584 30.4997 10.7715 30.4997H23.2715C22.3969 30.4996 21.5315 30.3224 20.7273 29.9786C19.9231 29.6349 19.1969 29.1318 18.5925 28.4997H10.7715ZM28.3145 30.4567L25.6575 27.7997C24.9447 28.2547 24.1171 28.4975 23.2715 28.4997C22.3815 28.4997 21.5114 28.2358 20.7714 27.7414C20.0314 27.2469 19.4546 26.5441 19.114 25.7218C18.7734 24.8996 18.6843 23.9948 18.858 23.1218C19.0316 22.2489 19.4602 21.4471 20.0895 20.8178C20.7188 20.1884 21.5207 19.7598 22.3936 19.5862C23.2665 19.4126 24.1713 19.5017 24.9936 19.8423C25.8158 20.1829 26.5186 20.7597 27.0131 21.4997C27.5076 22.2397 27.7715 23.1097 27.7715 23.9997C27.7692 24.8454 27.5264 25.6729 27.0715 26.3857L29.7285 29.0427L28.3145 30.4567ZM23.2715 26.4997C23.7659 26.4997 24.2493 26.3531 24.6604 26.0784C25.0715 25.8037 25.392 25.4133 25.5812 24.9565C25.7704 24.4996 25.8199 23.997 25.7234 23.512C25.627 23.0271 25.3889 22.5816 25.0393 22.232C24.6896 21.8824 24.2442 21.6442 23.7592 21.5478C23.2743 21.4513 22.7716 21.5008 22.3148 21.6901C21.858 21.8793 21.4675 22.1997 21.1928 22.6108C20.9181 23.0219 20.7715 23.5053 20.7715 23.9997C20.7715 24.6628 21.0349 25.2987 21.5037 25.7675C21.9726 26.2364 22.6084 26.4997 23.2715 26.4997Z" fill="#FEF335"/>
</g>
<defs>
<filter id="filter0_i_983_11004" x="7.77148" y="6.49976" width="21.957" height="27" filterUnits="userSpaceOnUse" color-interpolation-filters="sRGB">
<feFlood flood-opacity="0" result="BackgroundImageFix"/>
<feBlend mode="normal" in="SourceGraphic" in2="BackgroundImageFix" result="shape"/>
<feColorMatrix in="SourceAlpha" type="matrix" values="0 0 0 0 0 0 0 0 0 0 0 0 0 0 0 0 0 0 127 0" result="hardAlpha"/>
<feOffset dy="3"/>
<feGaussianBlur stdDeviation="1.5"/>
<feComposite in2="hardAlpha" operator="arithmetic" k2="-1" k3="1"/>
<feColorMatrix type="matrix" values="0 0 0 0 0.529167 0 0 0 0 0.508 0 0 0 0 0 0 0 0 0.35 0"/>
<feBlend mode="normal" in2="shape" result="effect1_innerShadow_983_11004"/>
</filter>
</defs>
</svg>
