<svg width="37" height="37" viewBox="0 0 37 37" fill="none" xmlns="http://www.w3.org/2000/svg">
<path d="M24.166 17.6328C24.9944 17.6328 25.666 16.9612 25.666 16.1328C25.666 15.3044 24.9944 14.6328 24.166 14.6328C23.3376 14.6328 22.666 15.3044 22.666 16.1328C22.666 16.9612 23.3376 17.6328 24.166 17.6328Z" fill="#FEF335"/>
<path d="M19.166 14.6328C19.9945 14.6328 20.666 13.9612 20.666 13.1328C20.666 12.3044 19.9945 11.6328 19.166 11.6328C18.3376 11.6328 17.666 12.3044 17.666 13.1328C17.666 13.9612 18.3376 14.6328 19.166 14.6328Z" fill="#FEF335"/>
<path d="M14.166 17.6327C14.9944 17.6327 15.666 16.9611 15.666 16.1327C15.666 15.3043 14.9944 14.6327 14.166 14.6327C13.3376 14.6327 12.666 15.3043 12.666 16.1327C12.666 16.9611 13.3376 17.6327 14.166 17.6327Z" fill="#FEF335"/>
<path d="M14.166 23.6328C14.9944 23.6328 15.666 22.9612 15.666 22.1328C15.666 21.3044 14.9944 20.6328 14.166 20.6328C13.3376 20.6328 12.666 21.3044 12.666 22.1328C12.666 22.9612 13.3376 23.6328 14.166 23.6328Z" fill="#FEF335"/>
<path d="M18.7489 30.6328C16.3582 30.6326 14.022 29.9183 12.0399 28.5814C10.0579 27.2446 8.52032 25.3462 7.62443 23.1296C6.72853 20.9131 6.51513 18.4795 7.0116 16.1408C7.50807 13.8022 8.69177 11.6652 10.4109 10.0038C11.5657 8.87851 12.9374 7.99997 14.4426 7.42164C15.9477 6.84332 17.5547 6.5773 19.1659 6.63979C22.2107 6.7819 25.0909 8.06277 27.2357 10.2285C29.3806 12.3943 30.6334 15.2868 30.7459 18.3328C30.7867 19.8861 30.5234 21.4325 29.9709 22.8848C29.8585 23.1807 29.6734 23.4436 29.4328 23.6492C29.1922 23.8549 28.9037 23.9968 28.5939 24.0618C28.2791 24.1312 27.9518 24.1198 27.6425 24.0287C27.3332 23.9376 27.052 23.7697 26.8249 23.5408L26.7249 23.4408C26.2242 22.9401 25.5858 22.5998 24.8911 22.4632C24.1963 22.3266 23.4766 22.3998 22.8236 22.6736C22.1706 22.9474 21.6138 23.4093 21.2242 24.0006C20.8346 24.5919 20.6299 25.2857 20.6359 25.9938L20.6759 30.5098L19.7519 30.5868C19.4189 30.6108 19.0869 30.6328 18.7489 30.6328ZM18.7489 8.63279C16.0968 8.62085 13.5485 9.66298 11.6647 11.5299C9.78087 13.3968 8.71586 15.9356 8.70392 18.5878C8.69199 21.24 9.73411 23.7882 11.601 25.672C13.468 27.5558 16.0068 28.6209 18.6589 28.6328L18.6349 26.0078C18.6304 25.2688 18.7722 24.5362 19.0521 23.8523C19.332 23.1683 19.7446 22.5466 20.2659 22.0228C21.3103 20.9798 22.7259 20.394 24.2019 20.394C25.6779 20.394 27.0936 20.9798 28.1379 22.0228L28.1519 22.0368C28.5786 20.8668 28.7805 19.6267 28.7469 18.3818C28.6535 15.8443 27.6102 13.4346 25.8238 11.6301C24.0374 9.82553 21.6383 8.75792 19.1019 8.63879C18.9829 8.63279 18.8659 8.63279 18.7479 8.63279H18.7489Z" fill="#FEF335"/>
</svg>
