<svg width="64" height="28" viewBox="0 0 64 28" fill="none" xmlns="http://www.w3.org/2000/svg">
<mask id="mask0_306_43" style="mask-type:luminance" maskUnits="userSpaceOnUse" x="0" y="0" width="64" height="28">
<path d="M63.2361 0H0V28H63.2361V0Z" fill="white"/>
</mask>
<g mask="url(#mask0_306_43)">
<path d="M21.9038 20.3772L17.0021 24.2315C15.3797 25.4919 13.1888 26.1965 10.9081 26.1911C8.62729 26.1858 6.44187 25.471 4.8291 24.2028C3.21632 22.9346 2.30722 21.2161 2.30035 19.4227C2.29346 17.6292 3.18936 15.9064 4.79236 14.6307L12.1137 8.87368C12.1099 8.77224 12.1073 8.67065 12.1073 8.56873C12.1066 7.71138 12.2466 6.85751 12.5238 6.02832L3.18902 13.3686C1.15645 14.9783 0.0180592 17.1559 0.0232108 19.4242C0.0283623 21.6926 1.17664 23.867 3.2165 25.471C5.25637 27.0749 8.02155 27.9778 10.9063 27.9818C13.7911 27.9859 16.5603 27.0907 18.6074 25.4924L23.509 21.6381L21.9038 20.3772Z" fill="#A7FC3B"/>
<path d="M38.5249 28C37.0932 28.0019 35.6752 27.7814 34.3523 27.351C33.0294 26.9209 31.8275 26.2892 30.8159 25.4927L17.002 14.6303C14.9621 13.0218 13.8175 10.8425 13.8196 8.57087C13.8216 6.29927 14.9701 4.12118 17.0129 2.51494C19.0557 0.908712 21.8256 0.00567362 24.7146 0.00415232C27.6034 0.00263103 30.375 0.902753 32.4204 2.50683L46.2343 13.3691C47.7597 14.5675 48.7987 16.0948 49.2198 17.7579C49.6411 19.4207 49.4251 21.1446 48.5998 22.7111C47.7743 24.2776 46.3765 25.6162 44.5831 26.5578C42.7896 27.4993 40.6813 28.0011 38.5249 28ZM32.4204 24.2314C34.0436 25.4894 36.2332 26.1916 38.5123 26.1851C40.7911 26.1786 42.9743 25.4638 44.5859 24.1966C46.1972 22.9296 47.1063 21.2128 47.1145 19.4209C47.1227 17.6288 46.2297 15.9069 44.6299 14.6307L30.8161 3.76837C30.0164 3.13045 29.0643 2.62325 28.0142 2.27599C26.9644 1.92873 25.8374 1.74828 24.6984 1.74504C23.5592 1.74177 22.4306 1.9158 21.3775 2.25706C20.3245 2.59831 19.3675 3.10008 18.5621 3.73342C17.7567 4.36676 17.1185 5.11917 16.6846 5.94729C16.2506 6.77541 16.0293 7.66287 16.0334 8.55854C16.0375 9.45422 16.267 10.3404 16.7086 11.166C17.1503 11.9916 17.7953 12.7404 18.6065 13.3691L32.4204 24.2314Z" fill="#A7FC3B"/>
<path d="M44.6298 2.50677L39.7283 6.36103L41.3326 7.62257L46.2342 3.76832C47.8573 2.51041 50.047 1.80814 52.326 1.81463C54.6048 1.82114 56.7881 2.53588 58.3996 3.80303C60.011 5.07017 60.92 6.7869 60.9282 8.5789C60.9364 10.3709 60.0434 12.0928 58.4437 13.3691L51.1167 19.1305C51.1538 20.0911 51.0139 21.0508 50.7018 21.9798L60.048 14.6306C62.0927 13.0229 63.2413 10.8423 63.2413 8.56869C63.2413 6.29503 62.0927 4.11451 60.048 2.50677C58.0034 0.899059 55.2304 -0.00415039 52.3388 -0.00415039C49.4475 -0.00415039 46.6745 0.899059 44.6298 2.50677Z" fill="#A7FC3B"/>
</g>
</svg>
