<svg width="100" height="68" viewBox="0 0 135 68" fill="none" xmlns="http://www.w3.org/2000/svg">
<path d="M25.8 43.35C26.1 43.71 26.31 44 26.43 44.22C26.55 44.44 26.61 44.65 26.61 44.85C26.61 45.09 26.45 45.37 26.13 45.69C25.83 46.01 25.53 46.17 25.23 46.17C24.83 46.17 24.51 46.11 24.27 45.99C24.03 45.87 23.83 45.68 23.67 45.42C23.35 44.94 22.96 44.53 22.5 44.19C22.04 43.83 21.32 43.65 20.34 43.65C19.5 43.65 18.54 43.84 17.46 44.22C16.4 44.6 15.64 45.07 15.18 45.63C14.78 46.13 14.43 46.89 14.13 47.91C13.85 48.93 13.71 49.92 13.71 50.88C13.71 52.04 13.96 53.11 14.46 54.09C14.98 55.05 15.72 55.82 16.68 56.4C17.66 56.98 18.83 57.27 20.19 57.27C20.93 57.27 21.69 57.13 22.47 56.85C23.27 56.55 23.96 56.07 24.54 55.41H24.51C24.87 55.03 25.32 54.84 25.86 54.84C26.18 54.84 26.48 54.98 26.76 55.26C27.06 55.54 27.21 55.82 27.21 56.1C27.21 56.4 27.16 56.67 27.06 56.91C26.98 57.13 26.82 57.38 26.58 57.66C25.76 58.58 24.79 59.21 23.67 59.55C22.55 59.89 21.21 60.06 19.65 60.06C18.27 60.06 16.87 59.73 15.45 59.07C14.05 58.41 12.97 57.61 12.21 56.67C11.81 56.09 11.42 55.26 11.04 54.18C10.68 53.08 10.5 52.19 10.5 51.51C10.5 49.77 10.76 48.12 11.28 46.56C11.82 44.98 12.62 43.72 13.68 42.78C14.38 42.14 15.39 41.66 16.71 41.34C18.03 41.02 19.24 40.86 20.34 40.86C21.68 40.86 22.73 41.05 23.49 41.43C24.27 41.79 25.04 42.43 25.8 43.35ZM41.7473 50.37C41.9073 50.65 42.0373 51.06 42.1373 51.6C42.2373 52.12 42.2873 52.59 42.2873 53.01C42.2873 53.79 42.1173 54.9 41.7773 56.34C40.3973 58.86 38.3573 60.12 35.6573 60.12C34.6573 60.12 33.6373 59.79 32.5973 59.13C31.5573 58.47 30.8373 57.71 30.4373 56.85C29.8973 55.13 29.6273 54.04 29.6273 53.58C29.6273 52.78 29.7973 51.93 30.1373 51.03C30.4973 50.13 30.9473 49.35 31.4873 48.69C31.8273 48.23 32.4373 47.84 33.3173 47.52C34.1973 47.18 34.9973 47.01 35.7173 47.01C37.1173 47.01 38.3073 47.28 39.2873 47.82C40.2673 48.34 41.0873 49.19 41.7473 50.37ZM39.1373 55.2C39.2373 54.94 39.2873 54.27 39.2873 53.19C39.2873 52.61 39.1773 52.04 38.9573 51.48C38.7573 50.92 38.4573 50.44 38.0573 50.04C38.0173 50 37.9073 49.94 37.7273 49.86C37.5473 49.76 37.2973 49.67 36.9773 49.59C36.6773 49.49 36.3273 49.44 35.9273 49.44C34.8073 49.44 33.9873 49.89 33.4673 50.79C32.9473 51.69 32.6873 52.71 32.6873 53.85C32.6873 54.05 32.7373 54.43 32.8373 54.99C32.9573 55.55 33.0573 55.9 33.1373 56.04C33.1973 56.18 33.3473 56.38 33.5873 56.64C33.8473 56.88 34.1573 57.1 34.5173 57.3C34.8973 57.48 35.2873 57.57 35.6873 57.57C36.5873 57.57 37.3073 57.36 37.8473 56.94C38.3873 56.5 38.8173 55.92 39.1373 55.2ZM64.1489 58.95C63.8489 58.39 63.6589 57.77 63.5789 57.09C63.4989 56.39 63.4589 55.43 63.4589 54.21C63.4589 53.05 63.2989 52.04 62.9789 51.18C62.6589 50.32 61.9989 49.89 60.9989 49.89C60.6189 49.89 60.2389 50.01 59.8589 50.25C59.4989 50.47 59.2289 50.75 59.0489 51.09C58.7689 51.63 58.5789 52.22 58.4789 52.86C58.3789 53.48 58.3289 54.2 58.3289 55.02C58.3289 55.54 58.3589 56.07 58.4189 56.61C58.4189 56.77 58.4289 57.03 58.4489 57.39C58.4889 57.73 58.5089 58.04 58.5089 58.32C58.5089 59.52 58.0889 60.12 57.2489 60.12C56.1489 60.12 55.5689 59.54 55.5089 58.38C55.5089 57.56 55.5189 57.12 55.5389 57.06V55.77C55.5389 55.05 55.5089 54.35 55.4489 53.67C55.3889 52.99 55.3189 52.48 55.2389 52.14C55.0589 51.48 54.8189 50.97 54.5189 50.61C54.2389 50.25 53.7889 50.07 53.1689 50.07C52.2889 50.07 51.5789 50.45 51.0389 51.21C50.6589 51.81 50.4089 52.54 50.2889 53.4C50.1689 54.5 50.0789 55.37 50.0189 56.01C49.9789 56.63 49.9589 57.35 49.9589 58.17C49.9589 58.75 49.8589 59.22 49.6589 59.58C49.4789 59.94 49.1289 60.12 48.6089 60.12C48.2289 60.12 47.8289 60.02 47.4089 59.82C47.0089 59.6 46.8089 59.31 46.8089 58.95C46.8089 58.57 46.8489 58.19 46.9289 57.81C47.1089 56.67 47.1989 54.63 47.1989 51.69C47.1989 51.21 47.0789 50.75 46.8389 50.31C46.6189 49.85 46.3489 49.62 46.0289 49.62C45.9489 49.62 45.7989 49.66 45.5789 49.74C45.3789 49.82 45.2289 49.86 45.1289 49.86C44.8689 49.86 44.6289 49.74 44.4089 49.5C44.2089 49.26 44.1089 49.06 44.1089 48.9C44.1089 48.4 44.3489 47.98 44.8289 47.64C45.3289 47.28 45.8489 47.1 46.3889 47.1C47.1289 47.1 47.7589 47.33 48.2789 47.79C48.7989 48.25 49.1989 48.89 49.4789 49.71C49.9389 48.91 50.5589 48.27 51.3389 47.79C52.1189 47.29 52.9889 47.04 53.9489 47.04C54.5489 47.04 55.0289 47.12 55.3889 47.28C55.7689 47.42 56.0789 47.63 56.3189 47.91C56.5589 48.17 56.8689 48.57 57.2489 49.11C57.7489 48.47 58.3889 47.97 59.1689 47.61C59.9689 47.25 60.7889 47.07 61.6289 47.07C62.6289 47.07 63.5289 47.48 64.3289 48.3C65.1289 49.1 65.6689 50.03 65.9489 51.09C66.0889 51.63 66.1589 52.67 66.1589 54.21L66.2789 55.95C66.3789 56.99 66.7189 57.62 67.2989 57.84C67.9789 58.04 68.3189 58.25 68.3189 58.47C68.3189 58.95 68.1989 59.3 67.9589 59.52C67.7789 59.64 67.5289 59.77 67.2089 59.91C66.8889 60.05 66.6389 60.12 66.4589 60.12C65.3789 60.12 64.6089 59.73 64.1489 58.95ZM70.1135 49.77C69.9135 49.49 69.7735 49.25 69.6935 49.05C69.6135 48.85 69.5735 48.6 69.5735 48.3C69.5735 47.98 69.7035 47.71 69.9635 47.49C70.2435 47.27 70.5935 47.16 71.0135 47.16C71.4335 47.16 71.8535 47.32 72.2735 47.64C72.6935 47.94 73.0335 48.33 73.2935 48.81C73.7135 48.21 74.2835 47.78 75.0035 47.52C75.7235 47.26 76.5035 47.13 77.3435 47.13C78.2635 47.13 79.1135 47.41 79.8935 47.97C80.6935 48.53 81.3235 49.25 81.7835 50.13C82.2435 51.01 82.4735 51.89 82.4735 52.77C82.4735 53.63 82.3835 54.4 82.2035 55.08C82.0235 55.74 81.7035 56.41 81.2435 57.09C80.7235 57.81 80.0235 58.4 79.1435 58.86C78.2835 59.32 77.2535 59.55 76.0535 59.55C75.7335 59.55 75.3435 59.47 74.8835 59.31C74.4235 59.13 74.0435 58.94 73.7435 58.74C73.6035 60.1 73.5335 61.28 73.5335 62.28C73.5335 62.88 73.5635 63.45 73.6235 63.99C73.6635 64.63 73.6835 65.09 73.6835 65.37C73.6835 65.81 73.5335 66.13 73.2335 66.33C72.9335 66.55 72.6035 66.66 72.2435 66.66C71.5235 66.66 71.0435 66.46 70.8035 66.06C70.5835 65.68 70.4735 65.13 70.4735 64.41C70.5535 62.69 70.6535 61.1 70.7735 59.64C70.9135 57.54 70.9835 54.96 70.9835 51.9C70.9835 51.66 70.8835 51.31 70.6835 50.85C70.5035 50.39 70.3135 50.03 70.1135 49.77ZM73.8635 55.77C73.9635 56.15 74.2435 56.47 74.7035 56.73C75.1835 56.97 75.6135 57.09 75.9935 57.09C77.1335 57.09 77.9835 56.78 78.5435 56.16C78.9635 55.72 79.2335 55.29 79.3535 54.87C79.4935 54.45 79.5635 53.78 79.5635 52.86C79.5635 52.14 79.4235 51.54 79.1435 51.06C78.8635 50.56 78.5235 50.2 78.1235 49.98C77.7235 49.74 77.3435 49.62 76.9835 49.62C76.1635 49.62 75.4935 49.87 74.9735 50.37C74.4735 50.85 74.1535 51.51 74.0135 52.35C73.9135 53.01 73.8635 54.15 73.8635 55.77ZM96.6384 60.12C95.9584 60.12 95.4384 60.02 95.0784 59.82C94.7184 59.6 94.3284 59.2 93.9084 58.62C93.3884 59.08 92.6084 59.45 91.5684 59.73C90.5484 60.01 89.6684 60.15 88.9284 60.15C87.7084 60.15 86.7184 59.82 85.9584 59.16C85.2184 58.48 84.8484 57.49 84.8484 56.19C84.8484 55.63 84.9984 55.12 85.2984 54.66C85.6184 54.18 86.0284 53.76 86.5284 53.4C87.0884 53.02 87.7484 52.72 88.5084 52.5C89.2884 52.28 89.9984 52.17 90.6384 52.17C91.7184 52.17 92.6784 52.27 93.5184 52.47V52.44C93.5184 51.36 93.2484 50.62 92.7084 50.22C92.1884 49.8 91.3484 49.59 90.1884 49.59C89.4484 49.59 88.8084 49.92 88.2684 50.58C88.0684 50.84 87.6484 50.97 87.0084 50.97C86.6884 50.97 86.4484 50.84 86.2884 50.58C86.1484 50.3 86.0784 50.02 86.0784 49.74C86.0784 49.16 86.3184 48.66 86.7984 48.24C87.2984 47.82 87.8984 47.51 88.5984 47.31C89.2984 47.09 89.9484 46.98 90.5484 46.98C91.1284 46.98 91.8184 47.1 92.6184 47.34C93.4184 47.58 94.0684 47.9 94.5684 48.3C95.1684 48.82 95.6284 49.43 95.9484 50.13C96.2884 50.81 96.4584 51.56 96.4584 52.38C96.4584 52.64 96.4384 53.03 96.3984 53.55C96.3584 54.15 96.3384 54.64 96.3384 55.02C96.3384 55.2 96.3184 55.43 96.2784 55.71C96.2384 56.07 96.2184 56.37 96.2184 56.61C96.2184 56.87 96.2984 57.12 96.4584 57.36C96.6184 57.6 96.8384 57.8 97.1184 57.96C97.3784 58.1 97.5484 58.25 97.6284 58.41C97.7084 58.57 97.7484 58.75 97.7484 58.95C97.7484 59.15 97.6184 59.4 97.3584 59.7C97.1184 59.98 96.8784 60.12 96.6384 60.12ZM90.6384 54.39C89.8584 54.39 89.1684 54.54 88.5684 54.84C87.9684 55.14 87.6684 55.67 87.6684 56.43C87.6684 56.81 87.7984 57.13 88.0584 57.39C88.3384 57.65 88.6384 57.78 88.9584 57.78C89.8184 57.78 90.5384 57.69 91.1184 57.51C91.6984 57.33 92.3984 57 93.2184 56.52C93.3184 56.2 93.3784 55.75 93.3984 55.17C93.3984 54.95 93.4084 54.78 93.4284 54.66C92.3484 54.48 91.4184 54.39 90.6384 54.39ZM113.684 57.69C113.784 57.73 113.944 57.78 114.164 57.84C114.384 57.9 114.544 57.96 114.644 58.02C114.744 58.08 114.794 58.17 114.794 58.29C114.814 58.77 114.634 59.17 114.254 59.49C113.894 59.79 113.464 59.94 112.964 59.94C112.184 59.94 111.574 59.73 111.134 59.31C110.694 58.89 110.374 58.25 110.174 57.39C110.094 57.05 110.054 56.58 110.054 55.98C110.054 55.64 110.074 55.09 110.114 54.33C110.154 53.53 110.174 52.89 110.174 52.41C110.174 51.55 110.084 50.9 109.904 50.46C109.724 50 109.294 49.77 108.614 49.77C107.914 49.77 107.284 50.05 106.724 50.61C106.184 51.17 105.724 52.01 105.344 53.13C104.824 54.69 104.534 56.76 104.474 59.34C104.474 59.48 104.324 59.65 104.024 59.85C103.744 60.03 103.404 60.12 103.004 60.12C102.264 60.12 101.804 59.73 101.624 58.95L101.594 58.44C101.594 58.26 101.614 58.05 101.654 57.81C101.894 56.41 102.014 55.19 102.014 54.15C102.014 53.69 102.004 53.33 101.984 53.07L101.954 51.66C101.954 51.18 101.834 50.72 101.594 50.28C101.354 49.82 101.074 49.59 100.754 49.59C100.654 49.59 100.514 49.63 100.334 49.71C100.154 49.77 100.004 49.8 99.8841 49.8C99.6841 49.8 99.4641 49.7 99.2241 49.5C99.0041 49.3 98.8941 49.09 98.8941 48.87C98.8941 48.45 99.0341 48.11 99.3141 47.85C99.6141 47.61 99.9041 47.42 100.184 47.28C100.484 47.14 100.824 47.07 101.204 47.07C101.524 47.07 101.784 47.1 101.984 47.16C102.184 47.22 102.454 47.35 102.794 47.55C102.994 47.65 103.224 47.93 103.484 48.39C103.744 48.85 103.944 49.5 104.084 50.34C104.484 49.6 105.154 48.82 106.094 48C106.794 47.36 107.804 47.04 109.124 47.04C110.324 47.04 111.274 47.48 111.974 48.36C112.674 49.22 113.024 50.41 113.024 51.93C113.024 52.23 113.004 52.72 112.964 53.4C112.904 53.94 112.874 54.51 112.874 55.11C112.874 56.51 113.144 57.37 113.684 57.69ZM120.296 66.12C119.536 66.12 118.896 65.99 118.376 65.73C117.876 65.49 117.496 65.19 117.236 64.83C116.996 64.49 116.876 64.19 116.876 63.93C116.876 63.59 116.996 63.32 117.236 63.12C117.476 62.94 117.766 62.85 118.106 62.85C118.306 62.85 118.496 62.91 118.676 63.03C118.856 63.15 118.956 63.22 118.976 63.24C119.116 63.34 119.256 63.42 119.396 63.48C119.536 63.56 119.686 63.6 119.846 63.6C120.286 63.6 120.646 63.31 120.926 62.73C121.206 62.15 121.486 61.21 121.766 59.91C120.866 58.59 120.116 57.27 119.516 55.95L118.826 54.36C118.726 54.12 118.446 53.5 117.986 52.5C117.546 51.48 117.106 50.58 116.666 49.8C116.386 49.24 116.246 48.86 116.246 48.66C116.246 48.16 116.416 47.79 116.756 47.55C117.116 47.31 117.526 47.19 117.986 47.19C118.306 47.19 118.546 47.26 118.706 47.4C118.886 47.52 119.086 47.75 119.306 48.09C119.886 49.05 120.516 50.49 121.196 52.41C121.596 53.51 121.916 54.35 122.156 54.93C122.396 55.49 122.686 56.06 123.026 56.64C123.366 55.86 123.796 54.53 124.316 52.65C124.636 51.57 124.896 50.71 125.096 50.07C125.316 49.41 125.556 48.81 125.816 48.27C125.996 47.91 126.216 47.62 126.476 47.4C126.756 47.18 127.066 47.07 127.406 47.07C127.746 47.07 128.106 47.2 128.486 47.46C128.886 47.7 129.086 47.99 129.086 48.33C129.086 48.53 129.016 48.77 128.876 49.05C128.096 50.85 127.406 52.55 126.806 54.15C126.226 55.73 125.666 57.47 125.126 59.37C124.806 60.43 124.466 61.44 124.106 62.4C123.766 63.36 123.526 63.95 123.386 64.17C122.986 64.73 122.536 65.19 122.036 65.55C121.536 65.93 120.956 66.12 120.296 66.12Z" fill="#A7A7A7"/>
<mask id="mask0_306_34" style="mask-type:luminance" maskUnits="userSpaceOnUse" x="0" y="0" width="135" height="40">
<path d="M135 0H0V40H135V0Z" fill="white"/>
</mask>
<g mask="url(#mask0_306_34)">
<path d="M0 18.3358V24.5661C37.4394 11.1185 49.8668 54.0173 125.86 27.9235C128.57 26.9965 130.88 25.4524 132.505 23.4826C134.129 21.5129 134.997 19.2042 135 16.8428C52.0889 49.2003 39.2751 4.28991 1.77375 16.2412C1.25063 16.408 0.801964 16.6968 0.485756 17.0702C0.169544 17.4436 0.000336851 17.8845 0 18.3358Z" fill="#A7A7A7"/>
<path d="M134.645 2.67929C109.765 -6.25685 95.9308 9.68869 67.1467 13.7363C83.3546 16.0153 104.306 14.5202 134.645 2.67929Z" fill="#A7A7A7"/>
<path d="M0 13.6599C38.6442 -0.222581 50.6423 45.93 133.395 14.28C133.875 14.0968 134.28 13.8085 134.565 13.4484C134.848 13.0883 135 12.6711 135 12.2451V5.93552C59.8397 35.2675 42.2837 1.10402 11.7212 3.36343C8.51785 3.59952 5.53998 4.78629 3.3716 6.6911C1.20323 8.59588 0.000777562 11.0813 0 13.6599Z" fill="#A7A7A7"/>
<path d="M0.355225 28.044C25.2299 19.1079 39.0665 35.0534 67.8501 39.1018C51.6386 41.3797 30.6913 39.8849 0.355225 28.044Z" fill="#A7A7A7"/>
</g>
</svg>
