<svg width="172" height="28" viewBox="0 0 172 28" fill="none" xmlns="http://www.w3.org/2000/svg">
<mask id="mask0_306_45" style="mask-type:luminance" maskUnits="userSpaceOnUse" x="0" y="0" width="64" height="28">
<path d="M63.2361 0H0V28H63.2361V0Z" fill="white"/>
</mask>
<g mask="url(#mask0_306_45)">
<path d="M21.9038 20.3772L17.0021 24.2315C15.3797 25.4919 13.1888 26.1965 10.9081 26.1911C8.62729 26.1858 6.44187 25.471 4.8291 24.2028C3.21632 22.9346 2.30722 21.2161 2.30035 19.4227C2.29346 17.6292 3.18936 15.9064 4.79236 14.6307L12.1137 8.87368C12.1099 8.77224 12.1073 8.67065 12.1073 8.56873C12.1066 7.71138 12.2466 6.85751 12.5238 6.02832L3.18902 13.3686C1.15645 14.9783 0.0180592 17.1559 0.0232108 19.4242C0.0283623 21.6926 1.17664 23.867 3.2165 25.471C5.25637 27.0749 8.02155 27.9778 10.9063 27.9818C13.7911 27.9859 16.5603 27.0907 18.6074 25.4924L23.509 21.6381L21.9038 20.3772Z" fill="#A7FC3B"/>
<path d="M38.5249 28C37.0932 28.0019 35.6752 27.7814 34.3523 27.351C33.0294 26.9209 31.8275 26.2892 30.8159 25.4927L17.002 14.6303C14.9621 13.0218 13.8175 10.8425 13.8196 8.57087C13.8216 6.29927 14.9701 4.12118 17.0129 2.51494C19.0557 0.908712 21.8256 0.00567362 24.7146 0.00415232C27.6034 0.00263103 30.375 0.902753 32.4204 2.50683L46.2343 13.3691C47.7597 14.5675 48.7987 16.0948 49.2198 17.7579C49.6411 19.4207 49.4251 21.1446 48.5998 22.7111C47.7743 24.2776 46.3765 25.6162 44.5831 26.5578C42.7896 27.4993 40.6813 28.0011 38.5249 28ZM32.4204 24.2314C34.0436 25.4894 36.2332 26.1916 38.5123 26.1851C40.7911 26.1786 42.9743 25.4638 44.5859 24.1966C46.1972 22.9296 47.1063 21.2128 47.1145 19.4209C47.1227 17.6288 46.2297 15.9069 44.6299 14.6307L30.8161 3.76837C30.0164 3.13045 29.0643 2.62325 28.0142 2.27599C26.9644 1.92873 25.8374 1.74828 24.6984 1.74504C23.5592 1.74177 22.4306 1.9158 21.3775 2.25706C20.3245 2.59831 19.3675 3.10008 18.5621 3.73342C17.7567 4.36676 17.1185 5.11917 16.6846 5.94729C16.2506 6.77541 16.0293 7.66287 16.0334 8.55854C16.0375 9.45422 16.267 10.3404 16.7086 11.166C17.1503 11.9916 17.7953 12.7404 18.6065 13.3691L32.4204 24.2314Z" fill="#A7FC3B"/>
<path d="M44.6298 2.50677L39.7283 6.36103L41.3326 7.62257L46.2342 3.76832C47.8573 2.51041 50.047 1.80814 52.326 1.81463C54.6048 1.82114 56.7881 2.53588 58.3996 3.80303C60.011 5.07017 60.92 6.7869 60.9282 8.5789C60.9364 10.3709 60.0434 12.0928 58.4437 13.3691L51.1167 19.1305C51.1538 20.0911 51.0139 21.0508 50.7018 21.9798L60.048 14.6306C62.0927 13.0229 63.2413 10.8423 63.2413 8.56869C63.2413 6.29503 62.0927 4.11451 60.048 2.50677C58.0034 0.899059 55.2304 -0.00415039 52.3388 -0.00415039C49.4475 -0.00415039 46.6745 0.899059 44.6298 2.50677Z" fill="#A7FC3B"/>
</g>
<path d="M81.2 9.9C81.4 10.14 81.54 10.3333 81.62 10.48C81.7 10.6267 81.74 10.7667 81.74 10.9C81.74 11.06 81.6333 11.2467 81.42 11.46C81.22 11.6733 81.02 11.78 80.82 11.78C80.5533 11.78 80.34 11.74 80.18 11.66C80.02 11.58 79.8867 11.4533 79.78 11.28C79.5667 10.96 79.3067 10.6867 79 10.46C78.6933 10.22 78.2133 10.1 77.56 10.1C77 10.1 76.36 10.2267 75.64 10.48C74.9333 10.7333 74.4267 11.0467 74.12 11.42C73.8533 11.7533 73.62 12.26 73.42 12.94C73.2333 13.62 73.14 14.28 73.14 14.92C73.14 15.6933 73.3067 16.4067 73.64 17.06C73.9867 17.7 74.48 18.2133 75.12 18.6C75.7733 18.9867 76.5533 19.18 77.46 19.18C77.9533 19.18 78.46 19.0867 78.98 18.9C79.5133 18.7 79.9733 18.38 80.36 17.94H80.34C80.58 17.6867 80.88 17.56 81.24 17.56C81.4533 17.56 81.6533 17.6533 81.84 17.84C82.04 18.0267 82.14 18.2133 82.14 18.4C82.14 18.6 82.1067 18.78 82.04 18.94C81.9867 19.0867 81.88 19.2533 81.72 19.44C81.1733 20.0533 80.5267 20.4733 79.78 20.7C79.0333 20.9267 78.14 21.04 77.1 21.04C76.18 21.04 75.2467 20.82 74.3 20.38C73.3667 19.94 72.6467 19.4067 72.14 18.78C71.8733 18.3933 71.6133 17.84 71.36 17.12C71.12 16.3867 71 15.7933 71 15.34C71 14.18 71.1733 13.08 71.52 12.04C71.88 10.9867 72.4133 10.1467 73.12 9.52C73.5867 9.09333 74.26 8.77333 75.14 8.56C76.02 8.34667 76.8267 8.24 77.56 8.24C78.4533 8.24 79.1533 8.36667 79.66 8.62C80.18 8.86 80.6933 9.28667 81.2 9.9ZM89.7916 8.28C90.6849 8.28 91.4982 8.39333 92.2316 8.62C92.9649 8.83333 93.5649 9.15333 94.0316 9.58C94.8716 10.34 95.4582 11.1733 95.7916 12.08C96.1382 12.9733 96.3116 14.12 96.3116 15.52C96.3116 15.8133 96.2716 16.08 96.1916 16.32C96.1249 16.56 96.0116 16.8667 95.8516 17.24C95.6516 17.6533 95.5316 17.98 95.4916 18.22C95.2249 18.6867 94.7849 19.1333 94.1716 19.56C93.5716 19.9867 92.9182 20.3333 92.2116 20.6C91.5049 20.8667 90.8849 21 90.3516 21C87.7782 21 85.9449 20.12 84.8516 18.36C84.5449 17.8667 84.3049 17.3533 84.1316 16.82C83.9716 16.2867 83.8916 15.7667 83.8916 15.26C83.8916 13.9 84.1316 12.72 84.6116 11.72C85.1049 10.7067 85.7849 9.92 86.6516 9.36C87.1716 9.05333 87.7116 8.8 88.2716 8.6C88.8449 8.38667 89.3516 8.28 89.7916 8.28ZM85.9716 15.32C85.9716 16.04 86.1316 16.6333 86.4516 17.1C86.7849 17.5667 87.2916 18.0733 87.9716 18.62C88.5316 18.8333 88.9116 18.9733 89.1116 19.04C89.3116 19.0933 89.5382 19.12 89.7916 19.12C91.1382 19.12 92.2116 18.7533 93.0116 18.02C93.8116 17.2867 94.2116 16.28 94.2116 15C94.2116 13.9867 94.0982 13.1867 93.8716 12.6C93.6449 12.0133 93.2382 11.4867 92.6516 11.02C92.3449 10.7667 91.9516 10.58 91.4716 10.46C91.0049 10.34 90.4982 10.28 89.9516 10.28C89.1249 10.28 88.4116 10.5267 87.8116 11.02C87.2116 11.5 86.7516 12.1267 86.4316 12.9C86.1249 13.6733 85.9716 14.48 85.9716 15.32ZM111.844 9.36C111.844 10.16 111.817 11.28 111.764 12.72C111.75 13.0667 111.737 13.4867 111.724 13.98C111.71 14.46 111.704 15.02 111.704 15.66C111.704 17.7533 111.817 19.2533 112.044 20.16C112.03 20.4933 111.904 20.7333 111.664 20.88C111.424 21.0133 111.177 21.08 110.924 21.08C110.404 21.08 110.057 20.8933 109.884 20.52C109.724 20.1333 109.644 19.5933 109.644 18.9C109.644 16.3267 109.684 13.9467 109.764 11.76C109.51 12.2667 109.27 12.8267 109.044 13.44C108.83 14.04 108.544 14.88 108.184 15.96C107.81 17.1333 107.49 18.06 107.224 18.74C106.97 19.42 106.704 19.9467 106.424 20.32C106.344 20.36 106.184 20.44 105.944 20.56C105.717 20.6667 105.517 20.72 105.344 20.72C105.064 20.72 104.864 20.6733 104.744 20.58C104.624 20.4867 104.517 20.3533 104.424 20.18C104.33 20.0067 104.25 19.8667 104.184 19.76C103.97 19.44 103.697 18.9133 103.364 18.18C103.03 17.4467 102.724 16.68 102.444 15.88C102.337 15.6 102.237 15.3333 102.144 15.08C102.064 14.8133 101.984 14.5667 101.904 14.34C101.744 13.86 101.584 13.4133 101.424 13C101.277 12.5733 101.15 12.2733 101.044 12.1C101.044 12.8067 101.024 13.5133 100.984 14.22C100.957 15.0733 100.944 15.6867 100.944 16.06C100.944 16.3267 100.957 16.6867 100.984 17.14C101.064 18.5267 101.104 19.44 101.104 19.88C101.104 20.2 101.024 20.4733 100.864 20.7C100.704 20.9267 100.457 21.04 100.124 21.04C99.7638 21.04 99.4704 20.9733 99.2438 20.84C99.0304 20.6933 98.9171 20.48 98.9038 20.2C98.9171 19.9733 98.9238 19.6067 98.9238 19.1C98.9238 18.0733 98.8838 16.44 98.8038 14.2L98.7838 13.48C98.7838 12.9733 98.8104 12.2533 98.8638 11.32C98.8771 11.0933 98.8904 10.8267 98.9038 10.52C98.9171 10.2133 98.9238 9.88 98.9238 9.52C98.9238 9.10667 99.0638 8.80667 99.3438 8.62C99.6238 8.42 99.9838 8.32 100.424 8.32C100.69 8.32 100.957 8.38667 101.224 8.52C101.504 8.65333 101.71 8.84667 101.844 9.1C102.11 9.64667 102.377 10.2933 102.644 11.04C102.91 11.7733 103.27 12.82 103.724 14.18C104.15 15.4733 104.49 16.46 104.744 17.14C104.997 17.8067 105.21 18.26 105.384 18.5L105.844 17.14C107.35 12.54 108.364 9.82 108.884 8.98C109.004 8.82 109.21 8.68 109.504 8.56C109.81 8.42667 110.097 8.36 110.364 8.36C110.564 8.36 110.857 8.48667 111.244 8.74C111.644 8.98 111.844 9.18667 111.844 9.36ZM120.117 16.48C119.61 16.48 119.177 16.4667 118.817 16.44C118.47 16.4 118.01 16.34 117.437 16.26C117.437 16.8333 117.423 17.5333 117.397 18.36L117.377 19.9C117.377 20.2467 117.283 20.52 117.097 20.72C116.91 20.9067 116.69 21 116.437 21C115.997 21 115.67 20.9467 115.457 20.84C115.257 20.72 115.157 20.5133 115.157 20.22C115.157 19.7 115.183 19.1533 115.237 18.58C115.397 17.1933 115.477 15.6333 115.477 13.9C115.477 12.6867 115.443 11.5467 115.377 10.48C115.15 10.3867 114.95 10.2667 114.777 10.12C114.617 9.97333 114.53 9.82667 114.517 9.68C114.517 9.33333 114.643 9.05333 114.897 8.84C115.15 8.62667 115.537 8.52 116.057 8.52C116.483 8.52 117.01 8.48667 117.637 8.42C117.783 8.40667 118.037 8.38667 118.397 8.36C118.757 8.33333 119.07 8.32 119.337 8.32C120.43 8.32 121.277 8.42667 121.877 8.64C122.49 8.85333 123.103 9.20667 123.717 9.7C124.383 10.74 124.717 11.4733 124.717 11.9C124.717 13.2733 124.31 14.38 123.497 15.22C122.697 16.06 121.57 16.48 120.117 16.48ZM119.677 10.02C119.25 10.02 118.87 10.0467 118.537 10.1C118.217 10.14 117.843 10.2133 117.417 10.32C117.483 11.3467 117.517 12.24 117.517 13C117.517 13.5733 117.497 14.0533 117.457 14.44C118.03 14.56 118.477 14.64 118.797 14.68C119.13 14.7067 119.503 14.72 119.917 14.72C120.903 14.72 121.597 14.4667 121.997 13.96C122.41 13.4533 122.617 12.8533 122.617 12.16C122.617 11.96 122.557 11.7133 122.437 11.42C122.33 11.1267 122.23 10.9333 122.137 10.84C121.777 10.52 121.423 10.3067 121.077 10.2C120.73 10.08 120.263 10.02 119.677 10.02ZM135.736 20.7C135.562 20.4733 135.416 20.2267 135.296 19.96C135.176 19.68 135.049 19.3467 134.916 18.96C134.889 18.8933 134.809 18.6933 134.676 18.36C134.556 18.0267 134.416 17.74 134.256 17.5C133.416 17.62 132.729 17.68 132.196 17.68C131.902 17.68 131.576 17.6733 131.216 17.66C130.869 17.6333 130.609 17.62 130.436 17.62C129.769 17.5667 129.236 17.54 128.836 17.54C128.676 17.7533 128.536 17.98 128.416 18.22C128.309 18.46 128.169 18.82 127.996 19.3C127.756 19.9933 127.549 20.4867 127.376 20.78C127.256 20.98 127.022 21.08 126.676 21.08C126.382 21.08 126.109 21.02 125.856 20.9C125.616 20.7667 125.496 20.5867 125.496 20.36C125.602 19.8533 125.769 19.32 125.996 18.76C126.236 18.1867 126.576 17.4267 127.016 16.48L127.816 14.52C128.256 13.4 128.656 12.44 129.016 11.64C129.389 10.84 129.876 9.89333 130.476 8.8C130.556 8.64 130.689 8.50667 130.876 8.4C131.062 8.28 131.269 8.22 131.496 8.22C131.749 8.22 131.929 8.24 132.036 8.28C132.156 8.30667 132.249 8.36 132.316 8.44C132.382 8.50667 132.482 8.65333 132.616 8.88C133.069 9.58667 133.456 10.3133 133.776 11.06C134.109 11.8067 134.529 12.84 135.036 14.16L135.456 15.22C135.829 16.18 136.149 16.9867 136.416 17.64C136.696 18.28 137.002 18.8667 137.336 19.4C137.549 19.7467 137.656 19.9867 137.656 20.12C137.656 20.44 137.556 20.6867 137.356 20.86C137.169 21.02 136.922 21.1 136.616 21.1C136.229 21.1 135.936 20.9667 135.736 20.7ZM133.676 15.86C133.462 15.4067 133.156 14.62 132.756 13.5C132.342 12.3 131.929 11.3467 131.516 10.64C131.262 11.28 130.889 12.1067 130.396 13.12C130.062 13.7467 129.682 14.6533 129.256 15.84C130.109 15.9467 131.029 16 132.016 16C132.722 16 133.276 15.9533 133.676 15.86ZM147.769 9.76C147.769 9.37333 147.855 9.04 148.029 8.76C148.215 8.46667 148.489 8.32 148.849 8.32C149.155 8.32 149.429 8.38 149.669 8.5C149.909 8.62 150.029 8.82 150.029 9.1C150.029 9.64667 150.002 10.4133 149.949 11.4C149.895 12.36 149.869 13.0733 149.869 13.54C149.869 14.2733 149.895 15.2533 149.949 16.48C150.002 17.6533 150.029 18.5133 150.029 19.06C150.029 19.5 150.022 19.8267 150.009 20.04C150.009 20.2533 149.889 20.4667 149.649 20.68C149.422 20.88 149.069 20.98 148.589 20.98C148.335 20.98 148.115 20.94 147.929 20.86C147.755 20.7667 147.635 20.6667 147.569 20.56C146.942 19.8 146.029 18.5067 144.829 16.68C143.482 14.64 142.382 13.08 141.529 12C141.635 12.96 141.689 14.1333 141.689 15.52C141.689 16.1333 141.675 16.9333 141.649 17.92C141.635 18.8933 141.609 19.5333 141.569 19.84C141.515 20.2267 141.395 20.5267 141.209 20.74C141.035 20.94 140.755 21.04 140.369 21.04C140.075 21.04 139.855 20.96 139.709 20.8C139.575 20.6267 139.495 20.3333 139.469 19.92C139.455 19.3733 139.489 18.5533 139.569 17.46C139.582 17.2867 139.602 16.9867 139.629 16.56C139.655 16.1333 139.669 15.7533 139.669 15.42C139.669 14.5 139.622 13.4467 139.529 12.26C139.449 10.9533 139.409 9.98667 139.409 9.36C139.409 9.04 139.522 8.79333 139.749 8.62C139.989 8.44667 140.262 8.36 140.569 8.36C140.835 8.36 141.115 8.42667 141.409 8.56C142.555 10 144.109 12.1467 146.069 15L147.949 17.88C147.962 17.6667 147.969 17.3667 147.969 16.98C147.969 16.3 147.955 15.5667 147.929 14.78C147.902 13.9933 147.882 13.46 147.869 13.18C147.802 11.8867 147.769 10.7467 147.769 9.76ZM162.665 9.26C162.665 9.5 162.458 9.85333 162.045 10.32C161.752 10.6533 161.112 11.5667 160.125 13.06C159.285 14.3267 158.638 15.2667 158.185 15.88C158.198 17.3067 158.252 18.3533 158.345 19.02C158.385 19.42 158.405 19.7067 158.405 19.88C158.405 20.32 158.325 20.62 158.165 20.78C158.018 20.9267 157.758 21 157.385 21C157.105 21 156.838 20.92 156.585 20.76C156.345 20.5867 156.225 20.38 156.225 20.14C156.225 19.4467 156.205 18.1533 156.165 16.26C156.165 16.1667 156.045 15.92 155.805 15.52C155.592 15.1467 155.065 14.4267 154.225 13.36C153.412 12.3067 152.798 11.48 152.385 10.88C151.985 10.2667 151.785 9.8 151.785 9.48C151.785 9.2 151.912 8.98 152.165 8.82C152.432 8.64667 152.718 8.56 153.025 8.56C153.412 8.56 153.725 8.74 153.965 9.1C154.098 9.28667 154.305 9.64667 154.585 10.18C154.785 10.5667 155.012 10.9733 155.265 11.4C155.518 11.8267 155.752 12.1733 155.965 12.44L156.525 13.12C156.925 13.6 157.125 13.8467 157.125 13.86C157.525 13.46 157.885 13.02 158.205 12.54C158.525 12.0467 158.912 11.42 159.365 10.66L160.125 9.42L160.465 8.9C160.585 8.74 160.725 8.61333 160.885 8.52C161.045 8.42667 161.265 8.38 161.545 8.38C161.798 8.38 162.045 8.45333 162.285 8.6C162.538 8.74667 162.665 8.96667 162.665 9.26Z" fill="#F0F0F0"/>
</svg>
