<svg width="79" height="78" viewBox="0 0 79 78" fill="none" xmlns="http://www.w3.org/2000/svg">
<path fill-rule="evenodd" clip-rule="evenodd" d="M63.7572 15.2437L60.1367 18.8642L63.7556 15.2453L63.7572 15.2437Z" fill="#A8FE39"/>
<path fill-rule="evenodd" clip-rule="evenodd" d="M63.7572 63.5062L60.1367 59.8857L63.7556 63.5046L63.7572 63.5062Z" fill="#A8FE39"/>
<path fill-rule="evenodd" clip-rule="evenodd" d="M15.4941 63.5062L19.1146 59.8857L15.4958 63.5046L15.4941 63.5062Z" fill="#A8FE39"/>
<path fill-rule="evenodd" clip-rule="evenodd" d="M15.4941 15.2437L19.1146 18.8642L15.4958 15.2453L15.4941 15.2437Z" fill="#A8FE39"/>
<path d="M39.626 20.9999L39.626 29.2499" stroke="#A8FE39" stroke-width="4.5" stroke-linecap="round" stroke-linejoin="round"/>
<path d="M66.626 31.5L59.501 36.75" stroke="#A8FE39" stroke-width="4.5" stroke-linecap="round" stroke-linejoin="round"/>
<path d="M74.2568 56.625H68.2568" stroke="#A8FE39" stroke-width="4.5" stroke-linecap="round" stroke-linejoin="round"/>
<path d="M5.87598 56.625H11.876" stroke="#A8FE39" stroke-width="4.5" stroke-linecap="round" stroke-linejoin="round"/>
<path d="M14.126 31.5L20.126 36.375" stroke="#A8FE39" stroke-width="4.5" stroke-linecap="round" stroke-linejoin="round"/>
<path d="M59.501 56.625C59.501 45.8561 50.7698 37.125 40.001 37.125C29.2321 37.125 20.501 45.8561 20.501 56.625" stroke="#A8FE39" stroke-width="4.5" stroke-linecap="round" stroke-linejoin="round"/>
</svg>
