<svg width="37" height="37" viewBox="0 0 37 37" fill="none" xmlns="http://www.w3.org/2000/svg">
<path d="M27.75 6.63074H9.75C8.95435 6.63074 8.19129 6.94681 7.62868 7.50942C7.06607 8.07203 6.75 8.83509 6.75 9.63074V30.6307H25.1C27.306 28.4237 28.543 27.1867 30.75 24.9807V9.63074C30.75 8.83509 30.4339 8.07203 29.8713 7.50942C29.3087 6.94681 28.5456 6.63074 27.75 6.63074V6.63074ZM8.75 9.63074C8.75 9.36552 8.85536 9.11117 9.04289 8.92363C9.23043 8.73609 9.48478 8.63074 9.75 8.63074H27.75C28.0152 8.63074 28.2696 8.73609 28.4571 8.92363C28.6446 9.11117 28.75 9.36552 28.75 9.63074V22.6307H22.75V28.6307H8.75V9.63074ZM24.75 28.1517V24.6307H28.271L24.75 28.1517Z" fill="#FEF335"/>
<path d="M13.2495 11.6376L10.8955 17.8186H12.2335L12.7495 16.4546H14.7985L15.3125 17.8176H16.6495L14.3155 11.6306L13.2495 11.6376ZM13.2295 15.2046L13.7805 13.7576L14.3265 15.2046H13.2295Z" fill="#FEF335"/>
<path d="M19.1562 11.6929H17.9062V17.7619H19.1562V11.6929Z" fill="#FEF335"/>
</svg>
