<svg width="100" height="42" viewBox="0 0 147 42" fill="none" xmlns="http://www.w3.org/2000/svg">
<path d="M0.84375 41V0.999999H5.6875V36.7031H24.2813V41H0.84375ZM63.9736 21C63.9736 25.2187 63.2119 28.8646 61.6885 31.9375C60.165 35.0104 58.0752 37.3802 55.4189 39.0469C52.7627 40.7135 49.7288 41.5469 46.3174 41.5469C42.9059 41.5469 39.8721 40.7135 37.2158 39.0469C34.5596 37.3802 32.4697 35.0104 30.9463 31.9375C29.4229 28.8646 28.6611 25.2187 28.6611 21C28.6611 16.7812 29.4229 13.1354 30.9463 10.0625C32.4697 6.98958 34.5596 4.61979 37.2158 2.95312C39.8721 1.28646 42.9059 0.453124 46.3174 0.453124C49.7288 0.453124 52.7627 1.28646 55.4189 2.95312C58.0752 4.61979 60.165 6.98958 61.6885 10.0625C63.2119 13.1354 63.9736 16.7812 63.9736 21ZM59.2861 21C59.2861 17.5365 58.7067 14.6133 57.5479 12.2305C56.402 9.84766 54.846 8.04427 52.8799 6.82031C50.9268 5.59635 48.7393 4.98437 46.3174 4.98437C43.8955 4.98437 41.7015 5.59635 39.7354 6.82031C37.7822 8.04427 36.2262 9.84766 35.0674 12.2305C33.9216 14.6133 33.3486 17.5365 33.3486 21C33.3486 24.4635 33.9216 27.3867 35.0674 29.7695C36.2262 32.1523 37.7822 33.9557 39.7354 35.1797C41.7015 36.4036 43.8955 37.0156 46.3174 37.0156C48.7393 37.0156 50.9268 36.4036 52.8799 35.1797C54.846 33.9557 56.402 32.1523 57.5479 29.7695C58.7067 27.3867 59.2861 24.4635 59.2861 21ZM99.4619 13.5C99.0322 12.1849 98.4658 11.0065 97.7627 9.96484C97.0726 8.91015 96.2458 8.01172 95.2822 7.26953C94.3317 6.52734 93.251 5.96094 92.04 5.57031C90.8291 5.17969 89.501 4.98437 88.0557 4.98437C85.6859 4.98437 83.5309 5.59635 81.5908 6.82031C79.6507 8.04427 78.1077 9.84766 76.9619 12.2305C75.8161 14.6133 75.2432 17.5365 75.2432 21C75.2432 24.4635 75.8226 27.3867 76.9814 29.7695C78.1403 32.1523 79.7093 33.9557 81.6885 35.1797C83.6676 36.4036 85.8942 37.0156 88.3682 37.0156C90.6598 37.0156 92.6781 36.5273 94.4229 35.5508C96.1807 34.5612 97.5479 33.168 98.5244 31.3711C99.514 29.5612 100.009 27.4323 100.009 24.9844L101.493 25.2969H89.4619V21H104.696V25.2969C104.696 28.5911 103.993 31.4557 102.587 33.8906C101.194 36.3255 99.2666 38.2135 96.8057 39.5547C94.3577 40.8828 91.5452 41.5469 88.3682 41.5469C84.8265 41.5469 81.7145 40.7135 79.0322 39.0469C76.363 37.3802 74.2796 35.0104 72.7822 31.9375C71.2979 28.8646 70.5557 25.2187 70.5557 21C70.5557 17.8359 70.9788 14.9909 71.8252 12.4648C72.6846 9.92578 73.8955 7.76432 75.458 5.98047C77.0205 4.19661 78.8695 2.82943 81.0049 1.87891C83.1403 0.928384 85.4906 0.453124 88.0557 0.453124C90.165 0.453124 92.1312 0.772134 93.9541 1.41015C95.79 2.03515 97.4242 2.92708 98.8564 4.08594C100.302 5.23177 101.506 6.60547 102.47 8.20703C103.433 9.79557 104.097 11.5599 104.462 13.5H99.4619ZM146.742 21C146.742 25.2187 145.98 28.8646 144.457 31.9375C142.934 35.0104 140.844 37.3802 138.188 39.0469C135.531 40.7135 132.497 41.5469 129.086 41.5469C125.674 41.5469 122.641 40.7135 119.984 39.0469C117.328 37.3802 115.238 35.0104 113.715 31.9375C112.191 28.8646 111.43 25.2187 111.43 21C111.43 16.7812 112.191 13.1354 113.715 10.0625C115.238 6.98958 117.328 4.61979 119.984 2.95312C122.641 1.28646 125.674 0.453124 129.086 0.453124C132.497 0.453124 135.531 1.28646 138.188 2.95312C140.844 4.61979 142.934 6.98958 144.457 10.0625C145.98 13.1354 146.742 16.7812 146.742 21ZM142.055 21C142.055 17.5365 141.475 14.6133 140.316 12.2305C139.171 9.84766 137.615 8.04427 135.648 6.82031C133.695 5.59635 131.508 4.98437 129.086 4.98437C126.664 4.98437 124.47 5.59635 122.504 6.82031C120.551 8.04427 118.995 9.84766 117.836 12.2305C116.69 14.6133 116.117 17.5365 116.117 21C116.117 24.4635 116.69 27.3867 117.836 29.7695C118.995 32.1523 120.551 33.9557 122.504 35.1797C124.47 36.4036 126.664 37.0156 129.086 37.0156C131.508 37.0156 133.695 36.4036 135.648 35.1797C137.615 33.9557 139.171 32.1523 140.316 29.7695C141.475 27.3867 142.055 24.4635 142.055 21Z" fill="#A7A7A7"/>
</svg>
