<svg width="37" height="37" viewBox="0 0 37 37" fill="none" xmlns="http://www.w3.org/2000/svg">
<path d="M18.2275 12.1904H8.47754C8.04656 12.1904 7.63324 12.3772 7.32849 12.7096C7.02374 13.0421 6.85254 13.493 6.85254 13.9632V25.1904H19.8525V13.9632C19.8525 13.493 19.6813 13.0421 19.3766 12.7096C19.0718 12.3772 18.6585 12.1904 18.2275 12.1904ZM8.47754 13.3722H18.2275C18.3712 13.3722 18.509 13.4345 18.6106 13.5453C18.7121 13.6561 18.7692 13.8064 18.7692 13.9632V15.7359H7.93587V13.9632C7.93587 13.8064 7.99294 13.6561 8.09452 13.5453C8.19611 13.4345 8.33388 13.3722 8.47754 13.3722ZM7.93587 24.0086V16.9177H18.7692V24.0086H7.93587Z" fill="#FEF335"/>
<path d="M22.1025 12.2822V23.4967C22.1025 23.9215 22.2713 24.329 22.5718 24.6295C22.8722 24.9299 23.2797 25.0987 23.7046 25.0987H29.0448C29.4697 25.0987 29.8772 24.9299 30.1776 24.6295C30.4781 24.329 30.6469 23.9215 30.6469 23.4967V12.2822H22.1025ZM29.5788 13.3503V20.8266H23.1706V13.3503H29.5788ZM29.0448 24.0307H23.7046C23.563 24.0307 23.4271 23.9744 23.327 23.8743C23.2268 23.7741 23.1706 23.6383 23.1706 23.4967V21.8946H29.5788V23.4967C29.5788 23.6383 29.5226 23.7741 29.4224 23.8743C29.3223 23.9744 29.1864 24.0307 29.0448 24.0307Z" fill="#FEF335"/>
</svg>
