<svg width="37" height="37" viewBox="0 0 37 37" fill="none" xmlns="http://www.w3.org/2000/svg">
<path d="M30.782 29.0585L24.52 22.7964C26.1466 20.807 26.9464 18.2685 26.7539 15.706C26.5613 13.1435 25.3912 10.753 23.4856 9.02896C21.58 7.30495 19.0846 6.37933 16.5157 6.44356C13.9467 6.50779 11.5007 7.55696 9.68362 9.37405C7.86653 11.1911 6.81736 13.6371 6.75313 16.2061C6.6889 18.775 7.61452 21.2704 9.33853 23.176C11.0625 25.0817 13.453 26.2518 16.0156 26.4443C18.5781 26.6368 21.1166 25.8371 23.106 24.2104L29.368 30.4725L30.782 29.0585ZM16.782 24.4724C15.1998 24.4724 13.653 24.0033 12.3374 23.1242C11.0219 22.2452 9.99647 20.9957 9.39097 19.5339C8.78547 18.0721 8.62705 16.4636 8.93573 14.9117C9.24441 13.3599 10.0063 11.9344 11.1252 10.8156C12.244 9.69677 13.6694 8.93484 15.2213 8.62616C16.7731 8.31747 18.3817 8.4759 19.8435 9.0814C21.3053 9.6869 22.5547 10.7123 23.4338 12.0279C24.3128 13.3435 24.782 14.8902 24.782 16.4724C24.7796 18.5934 23.936 20.6269 22.4362 22.1267C20.9365 23.6264 18.903 24.4701 16.782 24.4724Z" fill="#FEF335"/>
</svg>
