<svg width="86" height="81" viewBox="0 0 86 81" fill="none" xmlns="http://www.w3.org/2000/svg">
<path d="M43.249 9.68701L43.249 31.9995" stroke="#A8FE39" stroke-width="1.3125" stroke-linecap="round"/>
<path d="M37.8936 27.5374V27.5374C39.3804 27.5374 40.769 28.2805 41.5937 29.5176L43.2486 31.9999" stroke="#A8FE39" stroke-width="1.3125" stroke-linecap="round" stroke-linejoin="round"/>
<path d="M48.6035 27.5374V27.5374C47.1166 27.5374 45.7281 28.2805 44.9033 29.5176L43.2485 31.9999" stroke="#A8FE39" stroke-width="1.3125" stroke-linecap="round" stroke-linejoin="round"/>
<rect x="22.9043" y="1.15601" width="40.6875" height="40.6875" rx="20.3438" stroke="#A8FE39" stroke-width="1.3125"/>
<path d="M5.53582 72.7095C4.77582 72.7095 4.09582 72.5745 3.49582 72.3045C2.89582 72.0345 2.42082 71.6295 2.07082 71.0895C1.73082 70.5395 1.56082 69.8545 1.56082 69.0345V68.7195H2.80582V69.0345C2.80582 69.9045 3.06082 70.5545 3.57082 70.9845C4.08082 71.4045 4.73582 71.6145 5.53582 71.6145C6.35582 71.6145 6.98082 71.4295 7.41082 71.0595C7.84082 70.6895 8.05582 70.2245 8.05582 69.6645C8.05582 69.2745 7.95582 68.9645 7.75582 68.7345C7.56582 68.5045 7.29582 68.3195 6.94582 68.1795C6.59582 68.0295 6.18582 67.8995 5.71582 67.7895L4.93582 67.5945C4.32582 67.4345 3.78582 67.2395 3.31582 67.0095C2.84582 66.7795 2.47582 66.4795 2.20582 66.1095C1.94582 65.7295 1.81582 65.2445 1.81582 64.6545C1.81582 64.0645 1.96082 63.5545 2.25082 63.1245C2.55082 62.6945 2.96582 62.3645 3.49582 62.1345C4.03582 61.9045 4.65582 61.7895 5.35582 61.7895C6.06582 61.7895 6.70082 61.9145 7.26082 62.1645C7.83082 62.4045 8.27582 62.7645 8.59582 63.2445C8.92582 63.7145 9.09082 64.3095 9.09082 65.0295V65.6595H7.84582V65.0295C7.84582 64.5195 7.73582 64.1095 7.51582 63.7995C7.30582 63.4895 7.01082 63.2595 6.63082 63.1095C6.26082 62.9595 5.83582 62.8845 5.35582 62.8845C4.66582 62.8845 4.11082 63.0395 3.69082 63.3495C3.27082 63.6495 3.06082 64.0795 3.06082 64.6395C3.06082 65.0095 3.15082 65.3095 3.33082 65.5395C3.51082 65.7695 3.76582 65.9595 4.09582 66.1095C4.42582 66.2495 4.82082 66.3745 5.28082 66.4845L6.06082 66.6795C6.67082 66.8095 7.21582 66.9895 7.69582 67.2195C8.18582 67.4395 8.57582 67.7445 8.86582 68.1345C9.15582 68.5145 9.30082 69.0145 9.30082 69.6345C9.30082 70.2545 9.14582 70.7945 8.83582 71.2545C8.52582 71.7145 8.08582 72.0745 7.51582 72.3345C6.95582 72.5845 6.29582 72.7095 5.53582 72.7095ZM14.66 72.7095C13.95 72.7095 13.31 72.5595 12.74 72.2595C12.18 71.9495 11.735 71.5095 11.405 70.9395C11.085 70.3695 10.925 69.6945 10.925 68.9145V68.7495C10.925 67.9595 11.085 67.2845 11.405 66.7245C11.735 66.1545 12.18 65.7195 12.74 65.4195C13.31 65.1095 13.95 64.9545 14.66 64.9545C15.36 64.9545 15.955 65.0845 16.445 65.3445C16.945 65.6045 17.335 65.9495 17.615 66.3795C17.905 66.8095 18.09 67.2695 18.17 67.7595L17.015 67.9995C16.965 67.6395 16.845 67.3095 16.655 67.0095C16.475 66.7095 16.22 66.4695 15.89 66.2895C15.56 66.1095 15.155 66.0195 14.675 66.0195C14.185 66.0195 13.745 66.1295 13.355 66.3495C12.975 66.5695 12.67 66.8845 12.44 67.2945C12.22 67.7045 12.11 68.1945 12.11 68.7645V68.8995C12.11 69.4695 12.22 69.9595 12.44 70.3695C12.67 70.7795 12.975 71.0945 13.355 71.3145C13.745 71.5345 14.185 71.6445 14.675 71.6445C15.405 71.6445 15.96 71.4545 16.34 71.0745C16.73 70.6945 16.97 70.2245 17.06 69.6645L18.23 69.9195C18.12 70.3995 17.92 70.8545 17.63 71.2845C17.34 71.7145 16.945 72.0595 16.445 72.3195C15.955 72.5795 15.36 72.7095 14.66 72.7095ZM20.2499 72.4995V65.1645H21.4049V66.0645H21.6149C21.7449 65.7445 21.9449 65.5095 22.2149 65.3595C22.4849 65.2095 22.8399 65.1345 23.2799 65.1345H24.1499V66.2145H23.2049C22.6749 66.2145 22.2449 66.3645 21.9149 66.6645C21.5949 66.9545 21.4349 67.4095 21.4349 68.0295V72.4995H20.2499ZM29.0305 72.7095C28.2905 72.7095 27.6355 72.5545 27.0655 72.2445C26.5055 71.9345 26.0655 71.4995 25.7455 70.9395C25.4355 70.3695 25.2805 69.6995 25.2805 68.9295V68.7345C25.2805 67.9745 25.4355 67.3095 25.7455 66.7395C26.0655 66.1695 26.5055 65.7295 27.0655 65.4195C27.6355 65.1095 28.2905 64.9545 29.0305 64.9545C29.7705 64.9545 30.4205 65.1095 30.9805 65.4195C31.5505 65.7295 31.9905 66.1695 32.3005 66.7395C32.6205 67.3095 32.7805 67.9745 32.7805 68.7345V68.9295C32.7805 69.6995 32.6205 70.3695 32.3005 70.9395C31.9905 71.4995 31.5505 71.9345 30.9805 72.2445C30.4205 72.5545 29.7705 72.7095 29.0305 72.7095ZM29.0305 71.6445C29.8105 71.6445 30.4305 71.3995 30.8905 70.9095C31.3605 70.4095 31.5955 69.7395 31.5955 68.8995V68.7645C31.5955 67.9245 31.3605 67.2595 30.8905 66.7695C30.4305 66.2695 29.8105 66.0195 29.0305 66.0195C28.2605 66.0195 27.6405 66.2695 27.1705 66.7695C26.7005 67.2595 26.4655 67.9245 26.4655 68.7645V68.8995C26.4655 69.7395 26.7005 70.4095 27.1705 70.9095C27.6405 71.3995 28.2605 71.6445 29.0305 71.6445ZM34.913 72.4995V61.9995H36.098V72.4995H34.913ZM38.5897 72.4995V61.9995H39.7747V72.4995H38.5897ZM45.579 72.4995V71.3745H47.049V63.1245H45.579V61.9995H49.674C51.054 61.9995 52.119 62.3495 52.869 63.0495C53.629 63.7495 54.009 64.8245 54.009 66.2745V68.2245C54.009 69.6845 53.629 70.7645 52.869 71.4645C52.119 72.1545 51.054 72.4995 49.674 72.4995H45.579ZM48.309 71.3595H49.674C50.694 71.3595 51.464 71.1095 51.984 70.6095C52.504 70.1095 52.764 69.3345 52.764 68.2845V66.2295C52.764 65.1595 52.504 64.3795 51.984 63.8895C51.464 63.3995 50.694 63.1545 49.674 63.1545H48.309V71.3595ZM59.4553 72.7095C58.7153 72.7095 58.0603 72.5545 57.4903 72.2445C56.9303 71.9345 56.4903 71.4995 56.1703 70.9395C55.8603 70.3695 55.7053 69.6995 55.7053 68.9295V68.7345C55.7053 67.9745 55.8603 67.3095 56.1703 66.7395C56.4903 66.1695 56.9303 65.7295 57.4903 65.4195C58.0603 65.1095 58.7153 64.9545 59.4553 64.9545C60.1953 64.9545 60.8453 65.1095 61.4053 65.4195C61.9753 65.7295 62.4153 66.1695 62.7253 66.7395C63.0453 67.3095 63.2053 67.9745 63.2053 68.7345V68.9295C63.2053 69.6995 63.0453 70.3695 62.7253 70.9395C62.4153 71.4995 61.9753 71.9345 61.4053 72.2445C60.8453 72.5545 60.1953 72.7095 59.4553 72.7095ZM59.4553 71.6445C60.2353 71.6445 60.8553 71.3995 61.3153 70.9095C61.7853 70.4095 62.0203 69.7395 62.0203 68.8995V68.7645C62.0203 67.9245 61.7853 67.2595 61.3153 66.7695C60.8553 66.2695 60.2353 66.0195 59.4553 66.0195C58.6853 66.0195 58.0653 66.2695 57.5953 66.7695C57.1253 67.2595 56.8903 67.9245 56.8903 68.7645V68.8995C56.8903 69.7395 57.1253 70.4095 57.5953 70.9095C58.0653 71.3995 58.6853 71.6445 59.4553 71.6445ZM66.2113 72.4995L64.7413 65.1645H65.9413L67.1563 71.7045H67.3663L68.9713 65.1645H70.9363L72.5413 71.7045H72.7513L73.9663 65.1645H75.1663L73.6963 72.4995H71.6713L70.0513 65.9595H69.8563L68.2363 72.4995H66.2113ZM77.203 72.4995V65.1645H78.358V66.4095H78.568C78.728 66.0595 78.998 65.7445 79.378 65.4645C79.768 65.1745 80.338 65.0295 81.088 65.0295C81.638 65.0295 82.128 65.1445 82.558 65.3745C82.998 65.6045 83.348 65.9445 83.608 66.3945C83.868 66.8445 83.998 67.3995 83.998 68.0595V72.4995H82.813V68.1495C82.813 67.4195 82.628 66.8895 82.258 66.5595C81.898 66.2295 81.408 66.0645 80.788 66.0645C80.078 66.0645 79.498 66.2945 79.048 66.7545C78.608 67.2145 78.388 67.8995 78.388 68.8095V72.4995H77.203Z" fill="#A8FE39"/>
</svg>
