<svg width="128" height="127" viewBox="0 0 128 127" fill="none" xmlns="http://www.w3.org/2000/svg">
<path fill-rule="evenodd" clip-rule="evenodd" d="M64.6125 0.399001C64.6141 0.480852 65.0007 2.55951 65.4714 5.01803L66.3275 9.48805L67.6659 9.65175C68.402 9.74175 69.0253 9.78645 69.0513 9.75109C69.077 9.71572 69.7517 7.76461 70.5504 5.41536C71.3492 3.06611 72.0447 1.02659 72.0958 0.882955C72.1655 0.687665 71.974 0.637601 71.3346 0.684288L70.4802 0.746669L69.1828 4.67036C68.4693 6.82829 67.8329 8.59404 67.7687 8.59404C67.7043 8.59404 67.4551 7.49879 67.2145 6.16036C66.974 4.82194 66.6369 2.94453 66.4651 1.98834L66.1532 0.25H65.3814C64.9569 0.25 64.6111 0.31715 64.6125 0.399001ZM53.4201 1.69034C53.493 2.04556 53.6009 2.55951 53.6599 2.83268C53.7637 3.31226 53.7431 3.3063 53.0611 2.65746C52.6202 2.23807 52.2381 2.03026 52.0446 2.10476C51.49 2.31833 51.716 2.8148 52.5762 3.27233L53.4181 3.71993L52.8238 3.77774C51.6427 3.89277 51.3382 4.02548 51.3382 4.4258C51.3382 4.86644 51.6831 4.92028 52.6767 4.6346C53.0298 4.53288 53.319 4.49871 53.319 4.55871C53.319 4.6185 53.0407 4.98544 52.7006 5.37404C52.1205 6.03679 52.104 6.09659 52.4368 6.34056C52.8664 6.65564 53.1725 6.44863 53.5199 5.60747C53.8446 4.82095 54.1114 4.86147 54.1114 5.69707C54.1114 6.68187 54.2706 6.97768 54.7353 6.8559C55.0733 6.7671 55.1157 6.64472 55.0081 6.06898C54.9378 5.69389 54.8251 5.24212 54.7573 5.06511C54.6866 4.88035 54.9946 5.03372 55.4797 5.4245C56.2924 6.07951 56.3362 6.09143 56.6005 5.72906C56.8481 5.38933 56.8128 5.3055 56.2473 4.8869C55.9018 4.63122 55.5473 4.42202 55.4595 4.42202C55.3718 4.42202 55.2999 4.33262 55.2999 4.22335C55.2999 4.11409 55.701 4.02469 56.1912 4.02469C57.0162 4.02469 57.0826 3.98674 57.0826 3.51471C57.0826 3.12393 57.0014 3.02757 56.736 3.10247C56.5454 3.15631 56.0847 3.2622 55.7121 3.33769L55.0348 3.47497L55.6614 2.71269C56.2273 2.0241 56.258 1.92099 55.9795 1.64663C55.7022 1.37327 55.6225 1.3987 55.1883 1.90013C54.9229 2.20668 54.7056 2.58653 54.7056 2.74447C54.7056 2.90221 54.6165 3.03135 54.5075 3.03135C54.3986 3.03135 54.3095 2.58435 54.3095 2.03801C54.3095 1.10268 54.2795 1.04467 53.7986 1.04467C53.327 1.04467 53.2979 1.09434 53.4201 1.69034ZM72.8386 5.50317C72.4201 7.97202 72.1134 10.0268 72.1568 10.0699C72.2002 10.1129 72.549 10.2066 72.9317 10.2783L73.6276 10.4087L74.3716 5.89614C74.7808 3.41418 75.0918 1.35996 75.0623 1.33115C75.033 1.30234 74.6919 1.2193 74.3042 1.14679L73.5994 1.01467L72.8386 5.50317ZM76.2119 5.98991C75.5828 8.39081 75.1173 10.4351 75.1776 10.533C75.3202 10.7643 80.5961 12.0962 80.7516 11.94C80.8169 11.8746 80.8885 11.5707 80.9108 11.2647C80.9505 10.7226 80.9031 10.6956 79.0415 10.1977C77.9911 9.91657 77.1085 9.61659 77.0801 9.53096C77.0318 9.38454 77.4727 7.1988 77.5488 7.20734C77.5682 7.20953 78.4279 7.42866 79.4593 7.69408C80.4905 7.9597 81.3492 8.15896 81.3674 8.13711C81.3854 8.11526 81.4607 7.81467 81.5344 7.46919C81.681 6.78239 81.7374 6.8114 78.7064 6.01415C78.0545 5.84269 77.8768 5.71356 77.9671 5.47695C78.0327 5.3057 78.1858 4.76969 78.3073 4.28593C78.4314 3.79105 78.6248 3.44219 78.7494 3.48828C79.862 3.89953 82.4856 4.45202 82.6288 4.30521C82.7259 4.20547 82.8598 3.90052 82.9265 3.62735C83.0458 3.13922 83.0022 3.11896 80.415 2.45581C78.9669 2.0847 77.6863 1.74577 77.569 1.70286C77.4408 1.65577 76.9003 3.36372 76.2119 5.98991ZM45.4768 2.91692C44.8728 3.18075 44.8612 3.21313 44.6124 5.34285C44.4735 6.53008 44.3148 7.57726 44.2598 7.67004C44.2047 7.76302 43.6578 7.35893 43.0445 6.77226C40.706 4.53566 40.8155 4.6044 39.9925 4.8577C39.587 4.98266 39.2552 5.14497 39.2552 5.21868C39.2552 5.29258 40.1242 6.14864 41.1865 7.12132C44.1292 9.81585 44.1126 9.79559 44.5985 11.2786C44.8487 12.0421 45.0798 12.6979 45.1123 12.7363C45.2577 12.9079 46.6023 12.3042 46.5278 12.1005C46.4819 11.9748 46.2442 11.2643 45.9997 10.5215L45.5552 9.17078L45.9829 6.25016C46.2182 4.64374 46.4559 3.1728 46.5108 2.98168C46.6306 2.56567 46.3248 2.5466 45.4768 2.91692ZM84.5171 3.87569C84.1814 4.84201 82.0306 12.4244 82.0791 12.4714C82.1445 12.535 84.4365 13.5607 84.5131 13.5607C84.5385 13.5607 85.5747 11.9964 86.816 10.0846C88.8107 7.01205 89.547 6.04494 89.2738 6.8557C89.1417 7.24807 87.191 14.5737 87.191 14.6776C87.191 14.8076 89.2182 15.7417 89.5054 15.7441C89.7306 15.7461 94.6543 8.04155 94.4975 7.93288C94.4555 7.90367 94.1615 7.76759 93.8442 7.63051C93.3771 7.42866 93.2222 7.43045 93.0301 7.64004C92.8993 7.78229 91.9244 9.35733 90.8635 11.1404C89.8023 12.9232 88.8923 14.3401 88.8414 14.2889C88.7903 14.2378 89.2004 12.5024 89.7526 10.4327C90.3047 8.36299 90.7565 6.58253 90.7565 6.47625C90.7565 6.27043 88.4338 5.08716 88.3122 5.231C88.2725 5.27768 87.2853 6.79113 86.1184 8.59404C84.2297 11.5123 83.4419 12.5434 83.7155 11.7397C84.194 10.3338 86.018 4.17508 85.9683 4.13316C85.7652 3.96191 85.0062 3.62735 84.8208 3.62735C84.7013 3.62735 84.5647 3.7392 84.5171 3.87569ZM34.1748 7.68872C31.7026 8.93317 31.6436 8.98522 31.9468 9.65274C32.1192 10.032 32.2899 10.1591 32.5062 10.0692C33.3599 9.71393 33.4017 9.75903 34.8634 12.6081C35.6618 14.1645 36.2315 15.4656 36.1295 15.4997C36.0275 15.5339 35.7912 15.674 35.6042 15.811C35.3136 16.0242 35.2998 16.1383 35.5089 16.5986C35.6434 16.8946 35.8368 17.1368 35.9388 17.1368C36.204 17.1368 39.4345 15.3756 40.1785 14.8253C40.541 14.5571 40.9518 13.9754 41.1547 13.4429C41.5952 12.2857 41.4058 11.4582 40.1963 9.257C39.1471 7.34701 38.4346 6.80603 36.9682 6.80603C36.1327 6.80603 35.5832 6.97967 34.1748 7.68872ZM37.6672 8.49292C38.2963 8.81913 39.8495 11.6541 39.8495 12.4758C39.8495 13.069 39.0332 14.0361 38.2625 14.3564C37.9299 14.4945 37.628 14.5731 37.5916 14.5312C37.5551 14.4891 36.9006 13.216 36.137 11.7022L34.7487 8.94986L35.566 8.57755C36.5611 8.12439 36.928 8.10949 37.6672 8.49292ZM28.8902 10.635L28.3302 11.0843L28.7135 11.5774C28.9243 11.8488 29.8226 13.0845 30.7096 14.3238C32.6084 16.9762 32.7061 17.4222 31.615 18.4543C30.8784 19.151 30.0815 19.3167 29.3512 18.9248C29.1477 18.8155 28.1141 17.5234 27.0544 16.0534L25.1277 13.3805L24.5528 13.7912C24.1959 14.0461 24.0208 14.3141 24.0911 14.4979C24.3145 15.0819 27.6243 19.5325 28.1904 20.0105C29.3995 21.0306 31.08 20.8383 32.5878 19.5073C33.6159 18.5995 34.0338 17.5788 33.8278 16.478C33.7109 15.8528 29.9923 10.3664 29.596 10.234C29.5158 10.2074 29.1982 10.3876 28.8902 10.635ZM98.2618 12.3679C97.4124 12.8181 95.2062 15.6905 94.8857 16.7631C94.0448 19.5784 97.493 22.3381 100.05 20.8965C100.453 20.6697 100.892 20.3071 101.027 20.0909C101.236 19.7544 101.206 19.6428 100.818 19.3177C100.241 18.8356 100.012 18.833 99.5872 19.3042C98.5116 20.4964 96.3028 19.4022 96.3028 17.6773C96.3028 17.1085 97.2898 15.5681 98.3983 14.4071C99.2962 13.4664 100.016 13.3188 101.061 13.8607C102.005 14.3506 102.332 15.437 101.822 16.3921C101.63 16.7533 101.677 16.8821 102.158 17.2967L102.718 17.78L103.07 17.345C103.875 16.3469 103.774 14.661 102.839 13.5238C101.663 12.0926 99.7112 11.5997 98.2618 12.3679ZM19.8835 18.1889L17.4538 20.6317L17.9591 21.1079L18.4646 21.5841L19.4255 20.6347L20.3866 19.6853L23.1203 22.4881L25.8538 25.2909L26.4184 24.7485L26.9829 24.2061L25.3428 22.5091C24.4407 21.5758 23.2193 20.3011 22.6285 19.6767L21.5543 18.5415L22.4815 17.7228C22.9916 17.2726 23.4087 16.7917 23.4087 16.654C23.4087 16.3715 22.7818 15.7461 22.4987 15.7461C22.3967 15.7461 21.2199 16.8453 19.8835 18.1889ZM104.424 19.7421C102.735 20.7173 100.875 21.7884 100.291 22.1221L99.228 22.7289L99.7791 23.3058L100.33 23.8829L101.35 23.2976L102.37 22.7126L103.496 23.8541C104.115 24.4819 104.622 25.1065 104.622 25.2422C104.622 25.3777 104.391 25.8565 104.108 26.3061L103.593 27.1234L104.175 27.7061L104.756 28.289L107.066 24.2252C108.337 21.9902 109.376 20.081 109.376 19.9827C109.376 19.8843 108.953 19.391 108.435 18.8864L107.494 17.969L104.424 19.7421ZM106.674 21.9024L105.524 23.8885L104.583 22.9583C104.065 22.4467 103.684 21.985 103.736 21.9326C104.106 21.5619 107.706 19.599 107.758 19.7397C107.794 19.837 107.307 20.8101 106.674 21.9024ZM15.6786 22.7581C12.949 24.2058 12.7989 27.8378 15.4407 28.5101C16.1805 28.6984 17.1436 28.3142 18.5597 27.2658C19.9914 26.2059 20.5787 26.0609 21.1001 26.6388C21.7971 27.4113 21.1888 28.9974 19.9724 29.5791C19.3542 29.8747 19.2534 29.8722 18.5613 29.5428C17.8177 29.1889 17.8149 29.1891 17.4474 29.6687C16.9518 30.3154 16.9691 30.3915 17.7139 30.847C19.1284 31.712 21.0272 31.086 22.1707 29.3777C23.3568 27.6056 22.9327 25.5923 21.2235 24.8822C20.3842 24.5336 19.4051 24.854 17.888 25.9743C16.3719 27.0936 15.8509 27.238 15.3046 26.6901C14.7842 26.1682 14.7842 25.8007 15.305 24.9553C15.9725 23.8722 16.8427 23.6026 17.7491 24.1984C18.1895 24.4877 18.2396 24.4749 18.6334 23.9729C18.8631 23.6801 19.0509 23.3711 19.0509 23.2863C19.0509 23.0646 17.4154 22.3021 16.9398 22.3021C16.7189 22.3021 16.1514 22.5073 15.6786 22.7581ZM110.084 24.5606C109.474 25.1377 109.376 25.3542 109.376 26.135C109.376 26.6776 109.614 27.6363 109.97 28.5286C110.696 30.347 110.701 30.5099 110.038 31.0326C109.381 31.5515 108.89 31.4293 108.039 30.5343C107.257 29.7118 107.145 28.5508 107.792 27.9641C108.286 27.5158 108.281 27.298 107.766 26.677L107.357 26.1845L106.695 26.9092C105.838 27.8477 105.657 28.7942 106.108 29.9802C107.195 32.8337 110.119 33.7531 111.651 31.7229C112.119 31.1029 112.005 29.7543 111.346 28.104C110.694 26.4704 110.702 25.8326 111.378 25.4697C112.006 25.1325 112.679 25.4065 113.233 26.2246C113.865 27.1574 113.867 27.7496 113.239 28.3792L112.744 28.8754L113.17 29.4534C113.52 29.9274 113.664 29.9951 113.973 29.8294C115.228 29.156 115.46 26.9748 114.434 25.4903C113.681 24.401 112.808 23.8915 111.694 23.8915C110.941 23.8915 110.674 24.0023 110.084 24.5606ZM113.492 32.0929C111.344 33.3186 109.584 34.4002 109.58 34.4965C109.577 34.5929 110.204 35.7766 110.974 37.1269L112.375 39.5822L112.955 39.2811C113.275 39.1156 113.536 38.9258 113.536 38.8597C113.536 38.7935 113.079 37.9395 112.522 36.9616C111.964 35.984 111.585 35.1136 111.68 35.0276C111.775 34.9414 112.254 34.6398 112.745 34.3573L113.638 33.8435L114.59 35.5229C115.114 36.4465 115.616 37.2022 115.706 37.2022C115.796 37.2022 116.073 37.0367 116.321 36.8347L116.774 36.4671L115.828 34.8224C115.079 33.5201 114.938 33.1402 115.15 32.997C115.531 32.7393 116.87 32.0368 116.98 32.0368C117.03 32.0368 117.531 32.8414 118.092 33.8248C118.653 34.8082 119.172 35.6109 119.246 35.6085C119.319 35.6061 119.593 35.439 119.855 35.2374L120.33 34.8706L118.899 32.3611C118.112 30.9807 117.452 29.8545 117.433 29.8578C117.414 29.8614 115.641 30.8673 113.492 32.0929ZM8.3545 33.2682C7.64636 34.5993 7.06697 35.7688 7.06697 35.8673C7.06697 35.9657 8.84733 37.0121 11.0235 38.1928L14.9801 40.3394L15.2965 39.8139C15.4706 39.5246 16.1175 38.3429 16.7343 37.1877L17.8557 35.0872L17.2092 34.7781L16.5626 34.4687L15.5783 36.3316C15.037 37.3564 14.5208 38.1947 14.4313 38.1951C14.309 38.1953 13.0898 37.5495 12.3661 37.1011C12.3391 37.0844 12.722 36.3179 13.2168 35.3981L14.1165 33.7255L13.6815 33.3713C13.4422 33.1766 13.1532 33.0483 13.0391 33.0864C12.9252 33.1245 12.4354 33.8823 11.9509 34.7703L11.0698 36.3849L10.0588 35.8757C9.50278 35.5956 9.01629 35.3381 8.97787 35.3037C8.93944 35.2692 9.3667 34.3901 9.92727 33.3504L10.9464 31.4597L10.3535 31.1524C10.0275 30.9831 9.73394 30.8454 9.70146 30.8464C9.66877 30.8472 9.06264 31.9371 8.3545 33.2682ZM5.98049 39.2266C4.62898 40.148 3.90163 42.2726 4.47032 43.6378C5.00514 44.9216 6.74331 45.5315 7.95834 44.8618C8.2307 44.7118 8.94657 43.9327 9.54913 43.1306C10.4492 41.9325 10.7551 41.6613 11.2633 41.6114C11.7253 41.5659 11.962 41.6653 12.1981 42.0032C13.1477 43.3629 11.6292 45.7004 10.1357 45.1781C9.60618 44.993 9.55587 45.0243 9.28133 45.7107C8.9335 46.5805 9.08582 46.7019 10.5536 46.7243C11.7928 46.7432 12.665 46.1337 13.3561 44.7655C14.583 42.3364 13.547 39.9865 11.2479 39.9843C10.4355 39.9835 10.2341 40.153 7.83969 42.8523C7.13472 43.647 6.96496 43.7445 6.55216 43.5931C6.29049 43.4972 5.95276 43.2008 5.80143 42.9344C5.55858 42.5066 5.57462 42.3409 5.93929 41.5141C6.40894 40.4492 7.05212 40.0731 7.8698 40.3849C8.33252 40.5613 8.40085 40.5168 8.67381 39.8618C8.83782 39.468 8.92201 39.0959 8.861 39.0347C8.80019 38.9735 8.2824 38.8859 7.71054 38.8398C6.85681 38.7711 6.54721 38.8404 5.98049 39.2266ZM120.219 40.4617C119.81 40.6107 119.342 40.8428 119.181 40.9773C118.686 41.3893 118.449 42.7107 118.593 44.2563C118.753 45.964 118.62 46.499 117.975 46.745C116.486 47.313 115.158 44.5392 116.371 43.3955C116.623 43.1579 116.935 42.9636 117.065 42.9636C117.438 42.9636 117.262 41.9589 116.79 41.4038C116.636 41.2224 115.146 42.2704 114.855 42.7647C114.035 44.1574 114.778 47.0871 116.167 47.9366C117.374 48.6747 119.006 48.3747 119.69 47.2895C120.049 46.7184 120.089 46.4087 120.012 44.7551C119.916 42.6759 120.093 42.0225 120.801 41.8443C121.511 41.6657 122.158 42.2164 122.444 43.2433C122.663 44.0262 122.654 44.215 122.381 44.634C122.206 44.9006 121.874 45.1793 121.642 45.2532C121.29 45.3651 121.24 45.4908 121.343 46.007C121.411 46.3477 121.535 46.6947 121.618 46.778C121.849 47.01 123.064 46.3103 123.525 45.6801C124.123 44.8618 124.08 43.1481 123.433 41.9879C122.599 40.4909 121.532 39.9843 120.219 40.4617ZM124.183 47.2778C123.883 47.3233 123.641 47.4217 123.645 47.4964C123.649 47.5711 123.773 48.1975 123.921 48.8884C124.118 49.8136 124.13 50.1635 123.963 50.2159C123.839 50.2551 122.133 50.616 120.172 51.0181C118.211 51.4202 116.586 51.7667 116.562 51.788C116.538 51.8092 116.609 52.1575 116.72 52.5618C116.89 53.1789 116.993 53.2808 117.359 53.1967C118.13 53.0193 124.463 51.7049 124.547 51.7049C124.592 51.7049 124.628 51.8347 124.628 51.9932C124.628 52.1517 124.725 52.7328 124.843 53.2845C125.04 54.2054 125.104 54.2876 125.624 54.2876C125.935 54.2876 126.242 54.202 126.307 54.0973C126.372 53.9926 126.151 52.586 125.816 50.9719C125.057 47.3126 125.011 47.1288 124.855 47.1654C124.785 47.1817 124.482 47.2323 124.183 47.2778ZM7.06697 47.9696C4.77913 48.0663 2.8098 48.1782 2.69055 48.2183C2.3966 48.3173 1.90754 50.6838 2.13513 50.9057C2.61509 51.3736 10.1913 55.304 10.3258 55.155C10.4112 55.0602 10.5326 54.7054 10.5956 54.3663C10.7036 53.7848 10.6536 53.723 9.728 53.2881C9.04799 52.9687 8.77166 52.7309 8.8293 52.5143C8.87486 52.3423 9.06383 51.5536 9.24904 50.7613L9.58558 49.3209H10.6404C11.5256 49.3209 11.7132 49.2572 11.8077 48.9236C11.8695 48.7051 11.9705 48.3475 12.0323 48.1289C12.123 47.8085 12.0559 47.7375 11.6856 47.7626C11.4333 47.7799 9.35482 47.8728 7.06697 47.9696ZM7.95834 49.7032C7.95834 49.9151 7.51325 51.9714 7.44669 52.0665C7.35815 52.1935 3.20438 49.877 3.20438 49.7008C3.20438 49.601 4.27402 49.5196 5.58136 49.5196C6.90316 49.5196 7.95834 49.6011 7.95834 49.7032ZM2.20446 55.3312C1.16255 56.0355 0.728358 56.9557 0.728358 58.4596C0.728358 60.9813 1.88476 61.9119 5.3084 62.1453C7.58832 62.3007 8.40759 62.1199 9.20051 61.2861C9.89815 60.5526 10.1701 59.7659 10.1868 58.4332C10.204 57.0453 9.72661 56.1495 8.64053 55.5327C7.62279 54.9545 7.04855 54.9534 6.89464 55.5293C6.66427 56.3921 6.74826 56.6716 7.23831 56.6716C7.87792 56.6716 8.68134 57.3451 8.80296 57.9832C8.95311 58.7704 8.60389 59.781 8.0239 60.2387C7.08718 60.9776 3.52072 60.6553 2.61826 59.7502C1.52742 58.6559 2.18644 56.6452 3.73128 56.3546C4.32671 56.2425 4.39287 56.1628 4.39287 55.5569C4.39287 54.9083 4.36514 54.8836 3.62986 54.8836C3.16615 54.8836 2.60696 55.0592 2.20446 55.3312ZM123.111 56.1851C120.187 56.3861 119.611 56.4809 118.996 56.8624C117.979 57.4927 117.607 58.3001 117.613 59.8646C117.619 61.3892 118.036 62.2739 119.093 63.0004C119.756 63.4559 119.856 63.4659 122.549 63.3431C124.074 63.2736 125.755 63.1617 126.284 63.0944L127.246 62.9722L127.134 62.2806C127.073 61.9004 126.996 61.574 126.964 61.5553C126.933 61.5366 125.454 61.6051 123.68 61.7077C119.993 61.9204 119.624 61.8388 119.151 60.7038C118.903 60.1084 118.888 59.8257 119.07 59.2154C119.387 58.1563 119.953 57.9352 122.747 57.7794C124.054 57.7065 125.503 57.596 125.966 57.534C126.765 57.427 126.807 57.3876 126.807 56.76C126.807 56.3965 126.741 56.0659 126.659 56.0254C126.577 55.9846 124.98 56.0566 123.111 56.1851ZM117.789 66.5174C117.545 70.1163 117.818 71.029 119.391 71.856C120.056 72.2063 120.529 72.267 122.586 72.267H125.001L125.678 71.6095C126.49 70.8213 126.742 70.0378 126.905 67.797C126.972 66.8683 127.066 65.9168 127.114 65.6828C127.187 65.3246 127.093 65.2449 126.523 65.1782C125.891 65.1043 125.837 65.1432 125.723 65.7541C125.621 66.2997 125.527 66.3942 125.164 66.3195C124.924 66.2701 123.97 66.1777 123.044 66.1143C119.438 65.8674 119.28 65.8296 119.28 65.2145C119.28 64.8122 119.161 64.6324 118.835 64.5448C117.959 64.3096 117.936 64.3533 117.789 66.5174ZM0.509081 67.5153C0.57524 67.6882 0.629317 67.9993 0.629317 68.2067C0.629317 68.5635 0.855328 68.5867 4.83855 68.6374L9.04779 68.691L7.06697 69.32C5.97752 69.6659 4.16943 70.2293 3.04888 70.5722L1.01161 71.1958L1.11759 71.8804C1.17582 72.2569 1.27209 72.878 1.33152 73.2604L1.43967 73.9557L5.34267 73.9587C7.48948 73.9605 9.36234 74.036 9.50496 74.1266C9.71889 74.2627 5.92978 75.3897 2.36253 76.2513C1.93765 76.3538 1.8184 76.4983 1.82078 76.9075C1.82731 78.0308 1.86218 78.0292 6.54701 76.6965L10.9442 75.4457L10.8274 74.6511C10.5314 72.6415 10.7871 72.839 8.29587 72.6952C7.07529 72.6247 5.20738 72.5664 4.14527 72.566C3.08295 72.5654 2.21397 72.4981 2.21417 72.416C2.21417 72.334 4.00225 71.731 6.18769 71.0756L10.161 69.8844L10.0358 68.8903C9.80149 67.0318 10.3009 67.201 5.05169 67.201C0.881078 67.201 0.401523 67.2342 0.509081 67.5153ZM123.611 67.7207L125.465 67.8574L125.371 68.8382C125.303 69.555 125.136 69.9615 124.75 70.3477C124.251 70.8486 124.134 70.8736 122.518 70.8235C119.83 70.7405 119.082 70.182 119.082 68.2557V67.3427L120.419 67.4635C121.154 67.5298 122.591 67.6456 123.611 67.7207ZM122.989 74.6598L119.863 75.5385L118.288 75.1708L116.713 74.8028L116.59 75.459C116.523 75.82 116.517 76.1953 116.577 76.2932C116.638 76.3912 117.316 76.5903 118.084 76.7357C119.448 76.9938 119.541 77.0508 121.992 79.1533C123.373 80.3375 124.564 81.3064 124.64 81.3064C124.761 81.3064 125.025 80.3429 125.025 79.9009C125.025 79.8107 124.267 79.097 123.341 78.3149C122.415 77.5329 121.657 76.8255 121.657 76.7428C121.657 76.6602 122.638 76.3407 123.837 76.0326C126.01 75.4741 126.017 75.4708 126.213 74.7639C126.449 73.9106 126.457 73.7533 126.263 73.7692C126.181 73.7757 124.708 74.1766 122.989 74.6598ZM10.5088 76.9606L9.98907 77.1509L10.636 79.2176L11.2829 81.2844L10.1188 81.6787C9.47862 81.8955 8.91943 82.0123 8.87625 81.938C8.83307 81.8639 8.5613 81.0209 8.2725 80.0648C7.98389 79.1088 7.71906 78.3264 7.68439 78.3264C7.58634 78.3264 6.37349 78.7587 6.37586 78.7929C6.37705 78.8096 6.63397 79.6454 6.94693 80.6504L7.51563 82.4778L6.37071 82.8656L5.2256 83.2534L4.59055 81.2369C4.24134 80.1277 3.93471 79.1976 3.90915 79.1698C3.8838 79.1421 3.5736 79.2204 3.22003 79.344C2.77395 79.4999 2.60459 79.6676 2.66698 79.8913C3.2846 82.1063 4.30849 85.0811 4.45328 85.0811C4.64186 85.0811 12.9662 82.4968 13.0617 82.4086C13.1833 82.2964 11.3909 76.8597 11.2182 76.8169C11.114 76.7913 10.7947 76.8559 10.5088 76.9606ZM9.44395 85.273C7.374 86.1341 5.56492 86.9124 5.42388 87.0028C5.02158 87.2603 5.51837 88.5212 5.97495 88.4016C6.16372 88.3522 8.10334 87.5712 10.2854 86.6665L14.2528 85.0215L13.9955 84.4056C13.8538 84.0669 13.6185 83.7713 13.4727 83.7487C13.3269 83.7262 11.5139 84.412 9.44395 85.273ZM118.222 84.537C117.908 84.7672 117.912 84.8348 118.283 85.5643C118.501 85.994 118.645 86.38 118.603 86.4225C118.561 86.4648 118.164 86.3142 117.722 86.088L116.918 85.6763L116.702 86.08C116.512 86.4356 116.57 86.5183 117.184 86.7758C117.567 86.9363 117.973 87.0678 118.085 87.0678C118.198 87.0678 118.29 87.1572 118.29 87.2665C118.29 87.3757 118.106 87.4651 117.881 87.4651C117.551 87.4651 116.832 87.7329 116.552 87.9602C116.415 88.0711 116.773 88.6571 116.977 88.6571C117.103 88.6571 117.539 88.4781 117.946 88.2594C118.353 88.0407 118.686 87.9038 118.686 87.9552C118.686 88.0067 118.494 88.4179 118.26 88.8689C117.904 89.5529 117.88 89.7184 118.111 89.8654C118.537 90.136 118.68 90.0862 118.867 89.6008C118.961 89.3549 119.123 88.9331 119.226 88.6635C119.406 88.1931 119.425 88.2085 119.694 89.0465C119.99 89.9723 120.198 90.1505 120.647 89.8652C120.879 89.7184 120.854 89.5529 120.499 88.8689C120.264 88.4179 120.073 88.0067 120.073 87.9552C120.073 87.9038 120.406 88.0407 120.812 88.2594C121.713 88.7438 121.973 88.7567 122.138 88.3254C122.287 87.9354 122 87.7166 121.112 87.5452C120.238 87.3763 120.303 87.2035 121.36 86.8906C122.301 86.6119 122.356 86.5481 122.059 86.0772C121.87 85.7774 121.81 85.7884 120.409 86.3731C120.088 86.5072 120.096 86.4398 120.486 85.6892C120.792 85.099 120.857 84.7948 120.707 84.6444C120.345 84.2815 119.96 84.6069 119.686 85.5075L119.423 86.3725L119.104 85.4429C118.711 84.2986 118.643 84.2282 118.222 84.537ZM10.7315 88.8979C8.38917 89.448 6.4345 89.9328 6.38775 89.9755C6.341 90.018 6.44777 90.3577 6.62485 90.7304L6.94713 91.4081L8.0964 91.1365C8.72868 90.9873 10.5679 90.5393 12.1834 90.1414C13.7992 89.7433 15.1606 89.4572 15.2089 89.5056C15.2571 89.5539 13.8752 90.8767 12.1379 92.4449C8.84456 95.4178 8.89427 95.3425 9.59568 96.2842C9.85814 96.6364 10.0842 96.4654 13.2251 93.5378C15.0675 91.8207 16.5963 90.3108 16.6224 90.1823C16.6995 89.8036 15.6114 87.9699 15.2874 87.9322C15.1239 87.9133 13.0738 88.3478 10.7315 88.8979ZM109.061 93.3131L108.321 94.4318L108.915 95.0707C109.241 95.4224 110.645 96.9839 112.035 98.5409C113.424 100.098 114.64 101.372 114.736 101.372C114.833 101.372 115.056 101.093 115.231 100.753C115.543 100.149 115.537 100.119 114.979 99.5113C114.664 99.1688 113.396 97.7909 112.161 96.4493C110.926 95.1077 109.958 93.9677 110.009 93.9159C110.061 93.864 111.828 94.406 113.936 95.1204C116.044 95.8348 117.882 96.376 118.019 96.3231C118.157 96.2703 118.401 95.9711 118.562 95.6582L118.856 95.0894L114.661 93.7345C112.353 92.9893 110.316 92.3381 110.134 92.2872C109.901 92.222 109.581 92.5278 109.061 93.3131ZM106.001 97.6087C105.764 97.9427 105.601 98.2411 105.641 98.2715C105.68 98.3019 107.288 99.5908 109.214 101.136L112.717 103.944L113.227 103.337L113.737 102.729L110.174 99.865C108.215 98.2899 106.572 97.0012 106.522 97.0012C106.472 97.0012 106.238 97.2745 106.001 97.6087ZM16.2675 99.0375C16.257 100.078 16.2562 100.079 15.9208 99.5946C15.059 98.3493 14.9447 98.2651 14.5903 98.6144C14.2874 98.9126 14.3102 98.9892 14.9047 99.6681L15.5455 100.4L14.5249 100.265C13.5797 100.139 13.5046 100.159 13.5046 100.543C13.5046 100.857 13.6684 100.987 14.185 101.085C14.5592 101.155 14.9542 101.158 15.0627 101.09C15.1713 101.023 15.3016 101.037 15.3523 101.12C15.4032 101.204 15.0974 101.492 14.6727 101.759C13.8132 102.302 13.7663 102.403 14.206 102.769C14.4626 102.983 14.6143 102.923 15.1564 102.396C15.9385 101.636 16.1324 101.604 15.8767 102.279C15.5496 103.142 15.6324 103.756 16.0759 103.756C16.4638 103.756 16.5937 103.474 16.7175 102.365C16.7708 101.889 16.7918 101.899 17.2349 102.614C17.7196 103.395 18.1893 103.572 18.3901 103.047C18.4644 102.853 18.262 102.481 17.8497 102.054C17.1382 101.318 17.1485 101.308 18.4071 101.552C18.8703 101.642 19.249 101.646 19.249 101.56C19.249 101.474 19.3031 101.263 19.3692 101.09C19.4693 100.829 19.3189 100.776 18.4779 100.776C17.9215 100.776 17.4696 100.709 17.474 100.627C17.4781 100.545 17.7616 100.299 18.1037 100.081C18.811 99.629 18.9241 99.4092 18.6631 98.995C18.5113 98.7538 18.3406 98.8162 17.6683 99.3582L16.8568 100.012L16.9758 99.4504C17.2969 97.9363 17.3048 97.9945 16.7767 97.9945C16.3083 97.9945 16.2772 98.0581 16.2675 99.0375ZM102.777 101.145C101.722 102.223 100.859 103.19 100.859 103.296C100.859 103.402 101.069 103.686 101.326 103.928L101.793 104.368L103.241 102.757L104.689 101.146L105.579 102.039L106.469 102.932L105.14 104.372L103.81 105.813L104.331 106.324L104.853 106.835L106.2 105.37L107.547 103.904L108.472 104.759L109.397 105.614L107.856 107.168L106.315 108.723L106.819 109.228L107.323 109.734L109.291 107.728C110.373 106.624 111.284 105.648 111.316 105.558C111.373 105.396 105.033 99.1865 104.811 99.1865C104.748 99.1865 103.833 100.068 102.777 101.145ZM26.2809 104.93C25.3016 106.076 25.2554 106.102 22.1707 107.247C20.4549 107.885 19.0509 108.461 19.0509 108.527C19.0509 108.594 19.2959 108.881 19.5956 109.164L20.1404 109.68L22.1212 108.905C24.1139 108.124 24.5992 108.001 24.5948 108.276C24.5934 108.358 24.3706 109.229 24.0996 110.211C23.4846 112.441 23.4931 112.688 24.2024 113.249L24.7761 113.704L24.9742 112.951C25.0829 112.538 25.4537 111.063 25.7982 109.675C26.4059 107.226 26.4562 107.117 27.5058 105.953L28.5872 104.755L28.0284 104.261C27.7209 103.99 27.4248 103.769 27.3703 103.77C27.3159 103.771 26.8256 104.293 26.2809 104.93ZM99.0724 104.805C98.798 105.048 98.3202 105.431 98.0106 105.657L97.4479 106.067L99.375 109.689C100.435 111.681 101.244 113.369 101.172 113.441C101.101 113.512 99.7312 112.26 98.1281 110.659L95.2133 107.747L94.0916 108.593L92.9699 109.44L95.181 113.448C96.3973 115.653 97.4814 117.456 97.5903 117.454C97.6992 117.452 98.0007 117.273 98.2602 117.057L98.732 116.663L96.7199 113.161C95.6132 111.236 94.7577 109.61 94.8189 109.549C94.88 109.487 96.0633 110.554 97.4485 111.92C101.086 115.504 100.636 115.254 101.833 114.358C102.386 113.944 102.836 113.512 102.833 113.399C102.829 113.285 101.988 111.63 100.963 109.72C99.9386 107.81 99.1478 106.201 99.2057 106.144C99.2633 106.087 100.579 107.376 102.13 109.009L104.95 111.977L105.598 111.514L106.246 111.051L102.911 107.702C101.077 105.859 99.5745 104.355 99.5733 104.358C99.5721 104.362 99.3467 104.563 99.0724 104.805ZM30.0179 108.309C29.3125 108.74 28.702 109.494 27.6823 111.194C27.118 112.135 26.9744 112.579 26.975 113.38C26.976 114.824 27.4462 115.441 29.7786 117.059L31.8143 118.472L32.1629 118.018C32.6144 117.429 32.6068 117.3 32.0968 116.885L31.6731 116.541L33.3108 114.072C34.2117 112.714 35.0169 111.528 35.1001 111.436C35.1833 111.344 35.4753 111.416 35.749 111.595C36.2242 111.908 36.261 111.902 36.5625 111.47C36.7362 111.222 36.8783 110.956 36.8783 110.88C36.8783 110.712 34.0568 108.714 33.1741 108.256C32.3109 107.809 30.794 107.834 30.0179 108.309ZM33.2353 109.928L33.8967 110.338L32.1132 113.011C30.1892 115.894 30.2342 115.865 29.1905 114.878C28.6064 114.326 28.3546 113.66 28.5052 113.065C28.6929 112.322 30.4513 109.819 30.9647 109.563C31.5546 109.269 32.3878 109.403 33.2353 109.928ZM38.1658 112.201C37.0942 112.581 36.7691 113.041 35.1395 116.488L33.7363 119.455L34.3072 119.751C34.6209 119.914 34.9525 120.047 35.0438 120.047C35.1351 120.047 35.7793 118.817 36.4752 117.315C37.8964 114.247 38.4552 113.491 39.3022 113.491C40.4041 113.491 41.6322 114.465 41.6322 115.34C41.6322 115.544 41.0083 117.048 40.2457 118.684C39.483 120.319 38.8591 121.695 38.8591 121.741C38.8591 121.893 40.0822 122.462 40.186 122.358C40.2419 122.302 40.9112 120.932 41.6736 119.314C43.243 115.982 43.4094 115.065 42.6648 113.857C42.1936 113.092 40.7407 112.213 39.6514 112.034C39.2584 111.969 38.615 112.041 38.1658 112.201ZM86.3975 112.683C84.9162 113.135 83.7785 114.206 83.5776 115.337C83.4821 115.875 83.7646 117.663 83.9451 117.663C83.9942 117.663 84.3408 117.534 84.7154 117.377C85.3669 117.104 85.3871 117.065 85.1829 116.477C84.7538 115.243 85.747 114.087 87.2362 114.087C88.1794 114.087 88.6342 114.491 89.3261 115.944C90.5816 118.579 90.5814 119.476 89.3253 120.245C88.3304 120.853 87.539 120.767 86.846 119.975C86.2796 119.328 86.2444 119.317 85.6864 119.604C85.37 119.767 85.0787 119.929 85.0391 119.963C84.8645 120.115 85.8316 121.37 86.366 121.686C87.1651 122.157 88.7828 122.139 89.7433 121.648C90.7505 121.132 91.6974 120.017 91.8584 119.155C92.063 118.062 90.7757 114.681 89.715 113.526C88.8953 112.633 87.6216 112.309 86.3975 112.683ZM81.4962 114.823C81.0954 114.9 81.0505 115.024 81.0505 116.056V117.203L79.4916 117.631C78.6341 117.867 77.8523 118.06 77.7542 118.06C77.656 118.06 77.3559 117.656 77.0871 117.163C76.7822 116.603 76.4984 116.304 76.3322 116.368C76.1858 116.425 75.962 116.472 75.8346 116.474C74.9432 116.485 75.0746 116.839 77.3931 120.668C78.6747 122.785 79.7954 124.598 79.8836 124.697C79.9785 124.804 80.5729 124.734 81.3395 124.526L82.6351 124.175L82.6341 121.366C82.6328 117.514 82.4303 114.676 82.1595 114.71C82.0399 114.725 81.7414 114.775 81.4962 114.823ZM46.7202 116.918C46.4422 117.819 45.9276 119.505 45.5764 120.664L44.9378 122.771L43.663 122.387C42.9617 122.176 42.3491 122.043 42.3011 122.091C42.2534 122.139 42.1385 122.443 42.046 122.766L41.8778 123.355L45.2454 124.392C47.0977 124.962 48.6459 125.396 48.6861 125.355C48.7261 125.315 48.8137 125.009 48.8802 124.674C48.9997 124.076 48.9809 124.059 47.7246 123.64L46.4474 123.213L47.5881 119.494L48.7289 115.775L48.1022 115.542C47.7575 115.414 47.4194 115.302 47.3504 115.294C47.2815 115.285 46.9979 116.016 46.7202 116.918ZM52.5964 116.886C52.2534 116.986 51.6962 117.383 51.3584 117.769C50.871 118.326 50.744 118.651 50.744 119.343C50.744 120.532 51.4482 121.33 53.2232 122.153C54.9162 122.938 55.3959 123.41 55.2188 124.118C54.8207 125.709 51.4807 124.846 51.8017 123.235C51.9016 122.735 51.8487 122.662 51.304 122.553C50.3609 122.364 50.3478 122.374 50.3478 123.335C50.3478 124.543 50.7854 125.322 51.7378 125.81C54.2455 127.093 56.6983 126.106 56.7587 123.79C56.7881 122.675 56.2061 122.049 54.2027 121.04C53.08 120.475 52.4031 120.012 52.3605 119.783C52.148 118.631 53.0607 117.919 54.4218 118.175C55.4371 118.366 56.0922 119.048 56.0922 119.915C56.0922 120.454 56.1855 120.621 56.5379 120.716C57.5225 120.981 57.6768 120.889 57.6768 120.037C57.6768 118.476 56.5969 117.251 54.8997 116.886C53.7425 116.637 53.4549 116.637 52.5964 116.886ZM69.9852 117.496C68.9544 118.008 68.375 118.875 68.374 119.908C68.3725 121.467 69.2539 122.27 71.2454 122.522C73.1839 122.767 73.5143 122.847 73.8142 123.148C73.9811 123.315 74.1176 123.712 74.1176 124.029C74.1176 124.467 73.9768 124.679 73.5333 124.909C72.2681 125.565 70.8954 125.135 70.648 124.006C70.5539 123.576 70.4278 123.429 70.22 123.509C70.0581 123.572 69.7545 123.623 69.5455 123.623C68.568 123.623 69.469 125.822 70.6492 126.317C72.0613 126.908 74.2591 126.486 75.1809 125.447C75.7025 124.859 75.8259 123.445 75.4238 122.666C74.9874 121.819 74.2184 121.464 72.3016 121.223C70.2507 120.965 69.9579 120.808 69.9579 119.971C69.9579 119.079 70.5161 118.62 71.7476 118.502C72.5896 118.42 72.8238 118.475 73.2185 118.847C73.4766 119.091 73.7417 119.505 73.8074 119.768C73.9285 120.251 74.2373 120.341 75.0377 120.126C75.4228 120.022 75.4442 119.943 75.2663 119.284C75.0441 118.461 74.4682 117.756 73.6818 117.346C72.8582 116.916 71.0014 116.991 69.9852 117.496ZM62.3813 117.809L61.2423 117.881V118.595V119.309L63.404 119.171L65.5655 119.034L65.6324 120.335L65.6992 121.637L63.7679 121.636L61.8366 121.636L61.8364 122.381L61.836 123.126H63.7677H65.6992V124.318V125.51L63.5698 125.566L61.4404 125.623V126.311V127H64.4423H67.4443L67.3145 124.287C67.2432 122.794 67.1848 120.693 67.1848 119.618V117.663L65.3525 117.7C64.3449 117.721 63.0078 117.77 62.3813 117.809ZM81.0572 123.483C80.9475 123.603 79.5171 121.402 78.5394 119.609C78.4974 119.531 79.0229 119.303 79.7073 119.1L80.9514 118.732L81.0766 121.028C81.1456 122.291 81.1368 123.396 81.0572 123.483Z" fill="#A8FE39"/>
</svg>
