<svg width="79" height="78" viewBox="0 0 79 78" fill="none" xmlns="http://www.w3.org/2000/svg">
<path d="M53.4222 39.214C48.8155 35.1079 44.7968 31.1974 41.3663 27.4823C37.9357 23.7673 36.2205 20.2967 36.2205 17.0704C36.2205 14.5286 37.0781 12.4022 38.7934 10.6913C40.5086 8.98045 42.6405 8.12502 45.1889 8.12502C46.6591 8.12502 48.1171 8.52829 49.5629 9.33485C51.0086 10.1414 52.2951 11.229 53.4222 12.5977C54.5494 11.229 55.8359 10.1414 57.2816 9.33485C58.7273 8.52829 60.1853 8.12502 61.6556 8.12502C64.204 8.12502 66.3358 8.98045 68.0511 10.6913C69.7664 12.4022 70.624 14.5286 70.624 17.0704C70.624 20.2967 68.9087 23.7673 65.4782 27.4823C62.0476 31.1974 58.029 35.1079 53.4222 39.214ZM53.4222 33.1282C56.6568 30.1953 59.5972 27.2868 62.2437 24.4028C64.8901 21.5187 66.2133 19.0746 66.2133 17.0704C66.2133 15.7506 65.7845 14.663 64.9269 13.8076C64.0692 12.9521 62.9788 12.5244 61.6556 12.5244C60.8224 12.5244 60.0016 12.7199 59.1929 13.111C58.3843 13.502 57.5634 14.2353 56.7303 15.3107L53.4222 19.3435L50.1142 15.3107C49.2811 14.2353 48.4602 13.502 47.6516 13.111C46.8429 12.7199 46.022 12.5244 45.1889 12.5244C43.8657 12.5244 42.7753 12.9521 41.9176 13.8076C41.06 14.663 40.6312 15.7506 40.6312 17.0704C40.6312 19.0746 41.9544 21.5187 44.6008 24.4028C47.2472 27.2868 50.1877 30.1953 53.4222 33.1282ZM47.5413 68.25L24.6791 61.7243V65.9037H8.87402V37.0143H31.5892L50.3347 44.0534C51.658 44.5422 52.7729 45.3365 53.6795 46.4364C54.5862 47.5362 55.0395 49.1127 55.0395 51.1657H63.4199C65.4782 51.1657 67.1935 51.8989 68.5657 53.3654C69.9379 54.8319 70.624 56.8116 70.624 59.3046V61.211L47.5413 68.25ZM13.2847 61.5043H20.1949V41.4137H13.2847V61.5043ZM47.2472 63.704L66.0663 57.9848C65.7722 57.056 65.4047 56.4205 64.9636 56.0784C64.5225 55.7362 64.008 55.5651 63.4199 55.5651H48.2029C46.7327 55.5651 45.3727 55.4673 44.123 55.2718C42.8733 55.0763 41.6848 54.8074 40.5577 54.4653L34.6032 52.6322L36.2205 48.3794L41.5868 50.1392C42.812 50.5303 43.976 50.7991 45.0786 50.9457C46.1813 51.0924 47.9334 51.1657 50.3347 51.1657C50.3347 50.5791 50.2245 50.0048 50.0039 49.4426C49.7834 48.8805 49.4036 48.4772 48.8645 48.2328L30.8541 41.4137H24.6791V57.1049L47.2472 63.704Z" fill="#A8FE39"/>
</svg>
